<svg xmlns="http://www.w3.org/2000/svg" version="1.1" xmlns:xlink="http://www.w3.org/1999/xlink" xmlns:svgjs="http://svgjs.com/svgjs" width="1920" height="1080" preserveAspectRatio="none" viewBox="0 0 1920 1080"><g mask="url(&quot;#SvgjsMask11542&quot;)" fill="none"><path d="M635.9 335.97a5.6 5.6 0 1 0-5.52 9.75 5.6 5.6 0 1 0 5.52-9.75zM628.02 349.9a5.6 5.6 0 1 0-5.52 9.74 5.6 5.6 0 1 0 5.52-9.74zM620.14 363.82a5.6 5.6 0 1 0-5.52 9.75 5.6 5.6 0 1 0 5.52-9.75zM612.25 377.74a5.6 5.6 0 1 0-5.51 9.75 5.6 5.6 0 1 0 5.51-9.75z" fill="#e73635"></path><circle r="141.24453512901567" cx="1203.11" cy="640.44" stroke="#d3b714" stroke-width="1.16" stroke-dasharray="3, 2"></circle><path d="M1054.38 75.35L1064.32 83.42 1058.63 94.89 1068.57 102.97 1062.87 114.44 1072.81 122.51 1067.11 133.98M1046.57 77.04L1056.51 85.12 1050.81 96.59 1060.75 104.66 1055.05 116.13 1064.99 124.21 1059.3 135.68M1038.75 78.74L1048.69 86.82 1042.99 98.29 1052.93 106.36 1047.24 117.83 1057.18 125.91 1051.48 137.38" stroke="#e73635" stroke-width="2.94" stroke-dasharray="3, 2"></path><rect width="648" height="648" clip-path="url(&quot;#SvgjsClipPath11543&quot;)" x="264.9" y="745.69" fill="url(#SvgjsPattern11544)" transform="rotate(163.96, 588.9, 1069.69)"></rect><rect width="300" height="300" clip-path="url(&quot;#SvgjsClipPath11545&quot;)" x="313.78" y="789.61" fill="url(#SvgjsPattern11546)" transform="rotate(236.3, 463.78, 939.61)"></rect><path d="M1561.47 228.79a5.6 5.6 0 1 0 9.61 5.77 5.6 5.6 0 1 0-9.61-5.77zM1575.19 237.03a5.6 5.6 0 1 0 9.6 5.76 5.6 5.6 0 1 0-9.6-5.76zM1588.91 245.26a5.6 5.6 0 1 0 9.6 5.76 5.6 5.6 0 1 0-9.6-5.76zM1602.63 253.49a5.6 5.6 0 1 0 9.6 5.77 5.6 5.6 0 1 0-9.6-5.77z" fill="#d3b714"></path><path d="M547.72 548.02a5.6 5.6 0 1 0-10.1-4.83 5.6 5.6 0 1 0 10.1 4.83zM533.29 541.12a5.6 5.6 0 1 0-10.11-4.82 5.6 5.6 0 1 0 10.11 4.82zM518.85 534.23a5.6 5.6 0 1 0-10.1-4.83 5.6 5.6 0 1 0 10.1 4.83zM504.41 527.33a5.6 5.6 0 1 0-10.1-4.83 5.6 5.6 0 1 0 10.1 4.83zM583.5 547.38a5.6 5.6 0 1 0-10.11-4.83 5.6 5.6 0 1 0 10.11 4.83zM569.06 540.48a5.6 5.6 0 1 0-10.11-4.82 5.6 5.6 0 1 0 10.11 4.82zM554.62 533.59a5.6 5.6 0 1 0-10.1-4.83 5.6 5.6 0 1 0 10.1 4.83zM540.19 526.69a5.6 5.6 0 1 0-10.11-4.83 5.6 5.6 0 1 0 10.11 4.83z" fill="#e73635"></path><path d="M1583.26 607.89 L1779.07 419.46000000000004L1535.2834692702347 367.7934692702346z" fill="#d3b714"></path></g><defs><mask id="SvgjsMask11542"><rect width="1920" height="1080" fill="#ffffff"></rect></mask><pattern x="0" y="0" width="6" height="6" patternUnits="userSpaceOnUse" id="SvgjsPattern11544"><path d="M0 6L3 0L6 6" stroke="#d3b714" fill="none"></path></pattern><clipPath id="SvgjsClipPath11543"><circle r="162" cx="588.9" cy="1069.69"></circle></clipPath><pattern x="0" y="0" width="300" height="6" patternUnits="userSpaceOnUse" id="SvgjsPattern11546"><rect width="300" height="3" x="0" y="0" fill="#e73635"></rect><rect width="300" height="3" x="0" y="3" fill="rgba(0, 0, 0, 0)"></rect></pattern><clipPath id="SvgjsClipPath11545"><circle r="75" cx="463.78" cy="939.61"></circle></clipPath></defs></svg>