<svg xmlns="http://www.w3.org/2000/svg" version="1.1" xmlns:xlink="http://www.w3.org/1999/xlink" xmlns:svgjs="http://svgjs.com/svgjs" width="1920" height="1080" preserveAspectRatio="none" viewBox="0 0 1920 1080"><g mask="url(&quot;#SvgjsMask1060&quot;)" fill="none"><path d="M89.164,249.042C145.481,251.813,196.455,216.211,223.992,167.007C250.893,118.939,252.24,58.454,221.349,12.847C193.379,-28.447,139.039,-32.126,89.164,-32.048C39.483,-31.97,-16.486,-29.185,-42.306,13.26C-68.79,56.797,-49.302,110.271,-24.485,154.779C1.205,200.852,36.477,246.449,89.164,249.042" fill="rgba(250, 173, 94, 0.56)" class="triangle-float1"></path><path d="M96.745,233.881C148.47,232.612,201.556,217,227.907,172.472C254.675,127.241,245.04,71.792,220.022,25.571C193.51,-23.409,152.381,-67.293,96.745,-69.85C37.223,-72.585,-18.212,-38.428,-47.852,13.262C-77.343,64.692,-78.558,129.61,-46.06,179.194C-16.112,224.886,42.129,235.221,96.745,233.881" fill="rgba(250, 173, 94, 0.56)" class="triangle-float3"></path><path d="M128.078,282.303C184.233,283.304,239.399,257.193,266.666,208.092C293.257,160.208,278.752,104.227,254.139,55.297C225.895,-0.851,190.867,-64.593,128.078,-67.414C62.362,-70.367,9.266,-16.263,-19.261,43.012C-44.234,94.903,-32.398,154.259,-2.204,203.297C26.337,249.65,73.652,281.332,128.078,282.303" fill="rgba(250, 173, 94, 0.56)" class="triangle-float1"></path><path d="M1764.756,161.61C1801.987,160.88,1838.853,146.533,1857.69,114.411C1876.727,81.947,1871.807,42.379,1854.173,9.132C1835.17,-26.697,1805.285,-59.287,1764.756,-60.807C1722.047,-62.408,1683.679,-35.398,1662.918,1.96C1642.744,38.263,1642.952,83.17,1665.287,118.185C1686.14,150.876,1725.987,162.37,1764.756,161.61" fill="rgba(250, 173, 94, 0.56)" class="triangle-float1"></path><path d="M1944.504,521.088C2048.419,527.809,2159.248,484.477,2205.397,391.13C2248.314,304.32,2186.579,212.56,2138.627,128.427C2089.945,43.012,2042.753,-63.033,1944.504,-66.619C1842.947,-70.325,1768.711,21.951,1724.184,113.302C1685.4,192.872,1694.102,282.901,1736.179,360.78C1780.819,443.404,1850.788,515.026,1944.504,521.088" fill="rgba(250, 173, 94, 0.56)" class="triangle-float3"></path><path d="M1952.431,550.932C2058.252,548.849,2153.321,486.564,2203.215,393.221C2250.426,304.897,2241.369,197.057,2186.298,113.408C2136.244,37.379,2043.458,12.305,1952.431,12.297C1861.386,12.289,1770.016,38.303,1718.492,113.366C1659.429,199.412,1634.737,311.403,1683.944,403.442C1735.544,499.956,1843.01,553.086,1952.431,550.932" fill="rgba(250, 173, 94, 0.56)" class="triangle-float1"></path><path d="M113.706,1121.895C164.626,1118.03,208.526,1091.332,236.377,1048.53C267.552,1000.621,291.871,940.838,263.988,890.941C235.66,840.248,171.775,829.541,113.706,829.008C54.393,828.463,-8.649,838.705,-41.432,888.137C-77.349,942.293,-82.034,1015.825,-46.1,1069.97C-12.904,1119.989,53.846,1126.438,113.706,1121.895" fill="rgba(250, 173, 94, 0.56)" class="triangle-float2"></path><path d="M244.118,1341.303C342.62,1340.309,457.857,1345.264,507.669,1260.279C557.774,1174.794,503.067,1072.966,450.704,988.845C402.285,911.06,335.537,843.01,244.118,836.88C141.665,830.01,38.374,870.874,-16.761,957.499C-75.928,1050.459,-90.759,1174.562,-28.814,1265.695C28.065,1349.375,142.942,1342.324,244.118,1341.303" fill="rgba(250, 173, 94, 0.56)" class="triangle-float3"></path><path d="M29.556,990.212C61.93,988.963,87.618,964.379,101.619,935.162C113.814,909.714,107.151,881.333,93.591,856.586C79.327,830.555,59.215,804.835,29.556,803.648C-1.693,802.397,-27.942,824.252,-44.018,851.078C-60.634,878.803,-67.941,912.548,-52.831,941.122C-36.814,971.411,-4.682,991.533,29.556,990.212" fill="rgba(250, 173, 94, 0.56)" class="triangle-float1"></path><path d="M1731.12,980.6C1763.431,980.211,1794.368,964.946,1810.259,936.811C1825.911,909.099,1822.918,874.851,1806.113,847.823C1790.228,822.276,1761.202,809.791,1731.12,809.53C1700.515,809.265,1670.313,820.708,1653.842,846.504C1636.076,874.329,1632.122,910.157,1648.606,938.76C1665.11,967.398,1698.069,980.998,1731.12,980.6" fill="rgba(250, 173, 94, 0.56)" class="triangle-float1"></path><path d="M1739.756,987.282C1770.525,985.567,1796.981,968.358,1813.306,942.22C1830.831,914.161,1841.566,879.174,1825.249,850.396C1808.77,821.333,1773.156,813.301,1739.756,812.499C1704.466,811.652,1665.939,816.423,1646.844,846.113C1626.505,877.737,1629.818,919.886,1650.489,951.294C1669.393,980.017,1705.423,989.195,1739.756,987.282" fill="rgba(250, 173, 94, 0.56)" class="triangle-float1"></path><path d="M1954.756,1421.819C2056.261,1422.596,2128.779,1332.243,2174.365,1241.547C2214.851,1160.998,2212.024,1070.094,2172.189,989.221C2126.238,895.931,2058.744,796.685,1954.756,795.698C1849.786,794.702,1775.73,890.508,1730.053,985.024C1690.655,1066.547,1699.474,1157.714,1740.894,1238.229C1786.958,1327.772,1854.062,1421.048,1954.756,1421.819" fill="rgba(250, 173, 94, 0.56)" class="triangle-float1"></path></g><defs><mask id="SvgjsMask1060"><rect width="1920" height="1080" fill="#ffffff"></rect></mask><style>
            @keyframes float1 {
                0%{transform: translate(0, 0)}
                50%{transform: translate(-10px, 0)}
                100%{transform: translate(0, 0)}
            }

            .triangle-float1 {
                animation: float1 5s infinite;
            }

            @keyframes float2 {
                0%{transform: translate(0, 0)}
                50%{transform: translate(-5px, -5px)}
                100%{transform: translate(0, 0)}
            }

            .triangle-float2 {
                animation: float2 4s infinite;
            }

            @keyframes float3 {
                0%{transform: translate(0, 0)}
                50%{transform: translate(0, -10px)}
                100%{transform: translate(0, 0)}
            }

            .triangle-float3 {
                animation: float3 6s infinite;
            }
        </style></defs></svg>