<svg xmlns="http://www.w3.org/2000/svg" version="1.1" xmlns:xlink="http://www.w3.org/1999/xlink" xmlns:svgjs="http://svgjs.com/svgjs" width="1920" height="1080" preserveAspectRatio="none" viewBox="0 0 1920 1080"><g mask="url(&quot;#SvgjsMask1072&quot;)" fill="none"><path d="M911 1017L193 1016" stroke-width="10" stroke="url(#SvgjsLinearGradient1073)" stroke-linecap="round" class="Right"></path><path d="M1623 857L526 856" stroke-width="6" stroke="url(#SvgjsLinearGradient1074)" stroke-linecap="round" class="Left"></path><path d="M1891 821L2711 820" stroke-width="10" stroke="url(#SvgjsLinearGradient1074)" stroke-linecap="round" class="Left"></path><path d="M1080 737L1998 736" stroke-width="8" stroke="url(#SvgjsLinearGradient1074)" stroke-linecap="round" class="Left"></path><path d="M1844 629L2527 628" stroke-width="10" stroke="url(#SvgjsLinearGradient1073)" stroke-linecap="round" class="Right"></path><path d="M498 347L-619 346" stroke-width="10" stroke="url(#SvgjsLinearGradient1074)" stroke-linecap="round" class="Left"></path><path d="M206 105L-640 104" stroke-width="10" stroke="url(#SvgjsLinearGradient1074)" stroke-linecap="round" class="Left"></path><path d="M1561 337L576 336" stroke-width="10" stroke="url(#SvgjsLinearGradient1074)" stroke-linecap="round" class="Left"></path><path d="M448 433L-974 432" stroke-width="8" stroke="url(#SvgjsLinearGradient1074)" stroke-linecap="round" class="Left"></path><path d="M1294 639L2261 638" stroke-width="6" stroke="url(#SvgjsLinearGradient1073)" stroke-linecap="round" class="Right"></path><path d="M1867 50L2412 49" stroke-width="6" stroke="url(#SvgjsLinearGradient1074)" stroke-linecap="round" class="Left"></path><path d="M1735 348L303 347" stroke-width="8" stroke="url(#SvgjsLinearGradient1073)" stroke-linecap="round" class="Right"></path><path d="M1450 949L187 948" stroke-width="8" stroke="url(#SvgjsLinearGradient1074)" stroke-linecap="round" class="Left"></path><path d="M1531 1063L660 1062" stroke-width="8" stroke="url(#SvgjsLinearGradient1073)" stroke-linecap="round" class="Right"></path><path d="M1732 683L618 682" stroke-width="10" stroke="url(#SvgjsLinearGradient1073)" stroke-linecap="round" class="Right"></path><path d="M151 588L-548 587" stroke-width="8" stroke="url(#SvgjsLinearGradient1074)" stroke-linecap="round" class="Left"></path><path d="M1047 221L38 220" stroke-width="10" stroke="url(#SvgjsLinearGradient1074)" stroke-linecap="round" class="Left"></path><path d="M967 365L1665 364" stroke-width="6" stroke="url(#SvgjsLinearGradient1074)" stroke-linecap="round" class="Left"></path><path d="M745 32L152 31" stroke-width="8" stroke="url(#SvgjsLinearGradient1073)" stroke-linecap="round" class="Right"></path><path d="M643 395L-180 394" stroke-width="8" stroke="url(#SvgjsLinearGradient1074)" stroke-linecap="round" class="Left"></path><path d="M815 608L2051 607" stroke-width="10" stroke="url(#SvgjsLinearGradient1073)" stroke-linecap="round" class="Right"></path><path d="M1267 897L1768 896" stroke-width="10" stroke="url(#SvgjsLinearGradient1074)" stroke-linecap="round" class="Left"></path><path d="M660 513L1393 512" stroke-width="6" stroke="url(#SvgjsLinearGradient1073)" stroke-linecap="round" class="Right"></path><path d="M1632 149L2408 148" stroke-width="8" stroke="url(#SvgjsLinearGradient1074)" stroke-linecap="round" class="Left"></path><path d="M1504 953L302 952" stroke-width="10" stroke="url(#SvgjsLinearGradient1073)" stroke-linecap="round" class="Right"></path><path d="M5 1060L517 1059" stroke-width="10" stroke="url(#SvgjsLinearGradient1074)" stroke-linecap="round" class="Left"></path><path d="M532 322L-769 321" stroke-width="10" stroke="url(#SvgjsLinearGradient1074)" stroke-linecap="round" class="Left"></path></g><defs><mask id="SvgjsMask1072"><rect width="1920" height="1080" fill="#ffffff"></rect></mask><linearGradient x1="0%" y1="0%" x2="100%" y2="0%" id="SvgjsLinearGradient1073"><stop stop-color="rgba(250, 173, 94, 0)" offset="0"></stop><stop stop-color="rgba(250, 173, 94, 1)" offset="1"></stop></linearGradient><linearGradient x1="100%" y1="0%" x2="0%" y2="0%" id="SvgjsLinearGradient1074"><stop stop-color="rgba(250, 173, 94, 0)" offset="0"></stop><stop stop-color="rgba(250, 173, 94, 1)" offset="1"></stop></linearGradient></defs></svg>