<svg xmlns="http://www.w3.org/2000/svg" xmlns:xlink="http://www.w3.org/1999/xlink" width="1920" height="949" viewBox="0 0 1920 949">
  <defs>
    <clipPath id="clip-Parrttt">
      <rect width="1920" height="949"/>
    </clipPath>
  </defs>
  <g id="Parrttt" clip-path="url(#clip-Parrttt)">
    <rect id="Rechteck_64" data-name="Rechteck 64" width="16" height="25" transform="translate(-1771 676)" fill="#fff"/>
    <g id="Pfad_6" data-name="Pfad 6" transform="translate(-255.895 640.609)" fill="none" stroke-dasharray="10">
      <path d="M129.763,382.425s7.506-9.14,18.3-24.055a654.185,654.185,0,0,0,38.068-58.819c13.2-23.213,25.5-48.919,32.659-73.783,7.187-24.949,9.218-49.1,1.793-69.093C213.113,136.568,197,122.867,176.7,113.058c-20.424-9.871-45.085-15.8-69.405-20.347-24.469-4.57-48.576-7.729-67.622-12.064C20.536,76.291,6.539,70.753,2.45,61.421" stroke="none"/>
      <path d="M 221.0606689453125 151.3445892333984 L 216.5821075439453 153.4602813720703 C 216.2553253173828 152.7400054931641 215.9141387939453 152.0246429443359 215.5587310791016 151.3141326904297 C 215.2034759521484 150.6039428710938 214.8340911865234 149.8990783691406 214.4509429931641 149.2000579833984 C 214.0681915283203 148.5018310546875 213.6720123291016 147.8103942871094 213.2629089355469 147.1261444091797 C 212.8538818359375 146.4422760009766 212.4319763183594 145.7661285400391 211.9980163574219 145.0991363525391 L 216.1249694824219 142.3266448974609 C 216.5921173095703 143.0456237792969 217.0464172363281 143.7752532958984 217.4869384765625 144.5125579833984 C 217.9273529052734 145.2506561279297 218.3540649414062 145.9964752197266 218.766357421875 146.7495269775391 C 219.1784210205078 147.5028686523438 219.5764923095703 148.2639770507812 219.9590911865234 149.0298919677734 C 220.3417358398438 149.7961120605469 220.7090606689453 150.5681457519531 221.0606689453125 151.3445892333984 Z M 224.5889282226562 160.9928283691406 C 224.8162231445312 161.7900695800781 225.0317993164062 162.5993499755859 225.2352294921875 163.417724609375 C 225.4385223388672 164.2359466552734 225.6298217773438 165.0637512207031 225.8084716796875 165.8992462158203 C 225.9870758056641 166.7345733642578 226.1531524658203 167.5780639648438 226.3065032958984 168.4278259277344 C 226.4598236083984 169.2774200439453 226.6002960205078 170.1332550048828 226.7276000976562 170.9939422607422 L 221.8726501464844 171.7880401611328 C 221.7526550292969 170.9803466796875 221.6206665039062 170.1779937744141 221.4764251708984 169.3809356689453 C 221.3323822021484 168.5847015380859 221.1763458251953 167.7947387695312 221.0084533691406 167.0119781494141 C 220.8406524658203 166.2295379638672 220.6614074707031 165.454833984375 220.4707641601562 164.6892242431641 C 220.2799835205078 163.9235076904297 220.0779266357422 163.1673889160156 219.8648071289062 162.4213562011719 L 224.5889282226562 160.9928283691406 Z M 227.640380859375 181.1285247802734 C 227.6698150634766 181.9447326660156 227.6891174316406 182.7695617675781 227.6987609863281 183.6015625 C 227.7084197998047 184.4343872070312 227.7082366943359 185.2744140625 227.6981964111328 186.1206512451172 C 227.6883850097656 186.9667510986328 227.668701171875 187.8191375732422 227.6390380859375 188.6758117675781 C 227.6093292236328 189.5323791503906 227.5699157714844 190.3927764892578 227.5207214355469 191.2574920654297 L 222.6302490234375 191.0461883544922 C 222.6768951416016 190.219482421875 222.7141723632812 189.3962097167969 222.7420959472656 188.5777282714844 C 222.7699279785156 187.7591247558594 222.7885284423828 186.9453277587891 222.7977752685547 186.1377716064453 C 222.8071594238281 185.3305969238281 222.8069305419922 184.5281982421875 222.7974243164062 183.7344360351562 C 222.7876739501953 182.9395904541016 222.7689208984375 182.1529235839844 222.7403564453125 181.3748779296875 L 227.640380859375 181.1285247802734 Z M 209.9204864501953 134.1447143554688 L 206.2154693603516 137.4864196777344 C 205.7015075683594 136.9009552001953 205.1729278564453 136.3184509277344 204.6309967041016 135.7408294677734 C 204.0889587402344 135.16357421875 203.5336456298828 134.5911560058594 202.9658050537109 134.0236206054688 C 202.397705078125 133.4564361572266 201.8174285888672 132.8950653076172 201.2255096435547 132.3404846191406 C 200.6333312988281 131.7852630615234 200.0297546386719 131.2368316650391 199.415771484375 130.6961669921875 L 202.6784515380859 126.9013519287109 C 203.33154296875 127.477180480957 203.9736785888672 128.0617065429688 204.6039123535156 128.6529846191406 C 205.2339630126953 129.2450866699219 205.85205078125 129.8434753417969 206.4569396972656 130.4486389160156 C 207.0617980957031 131.0536499023438 207.6535949707031 131.6649322509766 208.2311859130859 132.2810974121094 C 208.8087768554688 132.8976135253906 209.3723602294922 133.5194396972656 209.9204864501953 134.1447143554688 Z M 226.5497589111328 201.2889404296875 C 226.4414978027344 202.0925598144531 226.3252105712891 202.9033660888672 226.2010040283203 203.7199249267578 C 226.0768890380859 204.5363159179688 225.9447937011719 205.3589630126953 225.8052673339844 206.1864013671875 C 225.6655883789062 207.0137786865234 225.5181274414062 207.8449554443359 225.3636169433594 208.6804351806641 C 225.2090759277344 209.5153961181641 225.0471343994141 210.3536834716797 224.8780670166016 211.1934204101562 L 220.0843811035156 210.2905426025391 C 220.247802734375 209.4763793945312 220.4044036865234 208.6637268066406 220.5539245605469 207.8544006347656 C 220.7033538818359 207.0459289550781 220.8456573486328 206.2398834228516 220.9806213378906 205.4390869140625 C 221.1156768798828 204.6377716064453 221.2432556152344 203.8416595458984 221.3631134033203 203.0508880615234 C 221.4829406738281 202.2604522705078 221.5952301025391 201.4757843017578 221.6996765136719 200.6992645263672 L 226.5497589111328 201.2889404296875 Z M 194.6475067138672 120.5889511108398 L 191.8075256347656 124.7265472412109 C 191.1676483154297 124.2773513793945 190.5146942138672 123.8306655883789 189.8502197265625 123.3878860473633 C 189.1854553222656 122.9449920654297 188.5090789794922 122.5060348510742 187.8220367431641 122.0704803466797 C 187.1348571777344 121.6353225708008 186.4371948242188 121.2045364379883 185.7304229736328 120.7791137695312 C 185.0232238769531 120.3535614013672 184.3067779541016 119.9324111938477 183.5819854736328 119.5180206298828 L 186.0415496826172 115.1302719116211 C 186.7986907958984 115.564208984375 187.5477600097656 116.0049362182617 188.2871704101562 116.4509887695312 C 189.0263977050781 116.8969345092773 189.7559814453125 117.3482131958008 190.47509765625 117.8043518066406 C 191.1935729980469 118.259895324707 191.9015808105469 118.7202987670898 192.5974731445312 119.1850967407227 C 193.2931823730469 119.6492919921875 193.9770355224609 120.1178817749023 194.6475067138672 120.5889511108398 Z M 222.6273803710938 220.9501800537109 C 222.4250030517578 221.7327270507812 222.2157287597656 222.5214080810547 221.9999237060547 223.3149261474609 C 221.7842712402344 224.1083679199219 221.5620269775391 224.9070434570312 221.3338775634766 225.7096099853516 C 221.1056976318359 226.5115356445312 220.8713684082031 227.3163909912109 220.6313171386719 228.1240997314453 C 220.3914489746094 228.9322204589844 220.1460418701172 229.7423095703125 219.8951873779297 230.5528717041016 L 215.2299957275391 229.1724395751953 C 215.4749603271484 228.3788757324219 215.7147064208984 227.5872344970703 215.948974609375 226.7975158691406 C 216.1833648681641 226.0077819824219 216.4121246337891 225.2204284667969 216.6346740722656 224.4364166259766 C 216.8575286865234 223.6528472900391 217.0742797851562 222.8721160888672 217.2849426269531 222.0976104736328 C 217.4956207275391 221.3225708007812 217.6997375488281 220.5518341064453 217.8972015380859 219.7877502441406 L 222.6273803710938 220.9501800537109 Z M 177.0257720947266 110.4178314208984 L 174.8973541259766 114.9871368408203 C 174.1843414306641 114.6480255126953 173.4600982666016 114.3104476928711 172.7254943847656 113.9758148193359 C 171.9908447265625 113.6411056518555 171.2457733154297 113.3083877563477 170.4918975830078 112.9790954589844 C 169.7379760742188 112.6497268676758 168.9751586914062 112.3237915039062 168.2046203613281 112.0007858276367 C 167.4339294433594 111.6782073974609 166.6555023193359 111.3585357666016 165.8710479736328 111.0427551269531 L 167.7165374755859 106.3421478271484 C 168.5248565673828 106.6675338745117 169.3268585205078 106.9967727661133 170.1215057373047 107.3309173583984 C 170.9157257080078 107.6644821166992 171.7023315429688 108.0014343261719 172.4801330566406 108.3423080444336 C 173.2576293945312 108.6826171875 174.0261077880859 109.0263519287109 174.7842407226562 109.37255859375 C 175.5420684814453 109.7181854248047 176.2898101806641 110.067253112793 177.0257720947266 110.4178314208984 Z M 216.755859375 240.0064697265625 C 216.4866180419922 240.7674865722656 216.2111358642578 241.5332489013672 215.9302978515625 242.3043060302734 C 215.6494903564453 243.0748138427734 215.3632202148438 243.8501281738281 215.072021484375 244.6277770996094 C 214.7805633544922 245.4049530029297 214.4844512939453 246.1854553222656 214.1839752197266 246.9678802490234 C 213.88330078125 247.7497863769531 213.5782318115234 248.5326538085938 213.2692413330078 249.3160705566406 L 208.7301788330078 247.5925750732422 C 209.0337524414062 246.8219146728516 209.3334197998047 246.0517272949219 209.6287841796875 245.2830657958984 C 209.9239959716797 244.5142822265625 210.2148742675781 243.7465057373047 210.5009765625 242.9820556640625 C 210.7870025634766 242.2175750732422 211.0681610107422 241.4555053710938 211.3438262939453 240.6981964111328 C 211.6197204589844 239.9408111572266 211.8903198242188 239.1878051757812 212.1548461914062 238.4404602050781 L 216.755859375 240.0064697265625 Z M 158.1935882568359 102.8007507324219 L 156.58740234375 107.5975189208984 C 155.8334045410156 107.3388977050781 155.0685577392578 107.0817947387695 154.2945861816406 106.8252258300781 C 153.5203247070312 106.569091796875 152.7369079589844 106.3149566650391 151.9454040527344 106.0627975463867 C 151.1538696289062 105.8100967407227 150.3542633056641 105.5593872070312 149.5480041503906 105.3111114501953 C 148.74169921875 105.0632858276367 147.9286346435547 104.8169326782227 147.1107177734375 104.5744705200195 L 148.5157165527344 99.70575714111328 C 149.3507690429688 99.95402526855469 150.1803436279297 100.205207824707 151.0035247802734 100.4588394165039 C 151.8266448974609 100.7129211425781 152.6431121826172 100.9694366455078 153.4515991210938 101.2284088134766 C 154.2599182128906 101.4868469238281 155.0601501464844 101.7472610473633 155.8509979248047 102.0096740722656 C 156.6416473388672 102.2715301513672 157.4229125976562 102.5353775024414 158.1935882568359 102.8007507324219 Z M 209.4830017089844 258.4909057617188 C 209.1636505126953 259.23193359375 208.8390197753906 259.9777221679688 208.5098571777344 260.7283020019531 C 208.1806335449219 261.4778747558594 207.8467407226562 262.2317199707031 207.5085906982422 262.987548828125 C 207.1704864501953 263.7433166503906 206.8282165527344 264.5014343261719 206.4825592041016 265.2601013183594 C 206.1369323730469 266.0187377929688 205.7873992919922 266.7783203125 205.4353485107422 267.5379638671875 L 201.0108337402344 265.5584411621094 C 201.3582916259766 264.8091430664062 201.7027435302734 264.0589904785156 202.0438690185547 263.3106994628906 C 202.3848114013672 262.5614624023438 202.7224426269531 261.8131713867188 203.0558776855469 261.0682067871094 C 203.3895416259766 260.3222961425781 203.7189025878906 259.5792541503906 204.0434875488281 258.8390808105469 C 204.3681030273438 258.0988464355469 204.6880950927734 257.3619689941406 205.002685546875 256.630859375 L 209.4830017089844 258.4909057617188 Z M 138.7214660644531 96.98115539550781 L 137.4844055175781 101.9032592773438 C 136.7083587646484 101.7021484375 135.9216918945312 101.5011138916016 135.1255950927734 101.3006286621094 C 134.3293304443359 101.1005783081055 133.5235443115234 100.9010848999023 132.7096405029297 100.7021102905273 C 131.8957214355469 100.5031204223633 131.0736694335938 100.3051147460938 130.2452239990234 100.1096038818359 C 129.4163360595703 99.91304779052734 128.5810699462891 99.71849822998047 127.740364074707 99.52493286132812 L 128.8383636474609 94.56134033203125 C 129.690673828125 94.75785064697266 130.5376739501953 94.95633697509766 131.3780059814453 95.15581512451172 C 132.2181549072266 95.35573577880859 133.0518951416016 95.55666351318359 133.8775482177734 95.75861358642578 C 134.702880859375 95.96050262451172 135.5202331542969 96.16389465332031 136.3281555175781 96.36783599853516 C 137.1359252929688 96.57222747802734 137.9341278076172 96.77616882324219 138.7214660644531 96.98115539550781 Z M 201.1572113037109 276.464599609375 C 200.7992248535156 277.1880798339844 200.4365844726562 277.9163513183594 200.0696411132812 278.6479797363281 C 199.7029876708984 279.3795776367188 199.3317718505859 280.113525390625 198.9575347900391 280.8504333496094 C 198.5829620361328 281.5867919921875 198.2049407958984 282.3240966796875 197.8242340087891 283.0628662109375 C 197.4431915283203 283.8006591796875 197.0598449707031 284.5399169921875 196.6739044189453 285.2782287597656 L 192.3517150878906 283.1005249023438 C 192.7333679199219 282.3701477050781 193.1127166748047 281.638916015625 193.4893188476562 280.9076232910156 C 193.8658905029297 280.1773376464844 194.2396087646484 279.447509765625 194.6100463867188 278.7186889648438 C 194.9804840087891 277.9902648925781 195.3472442626953 277.2637939453125 195.7099761962891 276.5406799316406 C 196.0728302001953 275.8170166015625 196.4315338134766 275.0967407226562 196.7852478027344 274.3803100585938 L 201.1572113037109 276.464599609375 Z M 118.8883819580078 92.39006805419922 L 117.9034652709961 97.38513946533203 C 117.1108703613281 97.22138214111328 116.3137130737305 97.05862426757812 115.5091934204102 96.89640808105469 C 114.7046279907227 96.73464202880859 113.8927917480469 96.57290649414062 113.0705413818359 96.4107666015625 C 112.2481155395508 96.24907684326172 111.4156036376953 96.08744812011719 110.5699615478516 95.92494201660156 C 109.7239074707031 95.76240539550781 108.8648452758789 95.59899139404297 107.9895477294922 95.43421173095703 L 108.8855514526367 90.41529083251953 C 109.7682800292969 90.58158111572266 110.6347808837891 90.74749755859375 111.48828125 90.91203308105469 C 112.3413543701172 91.07654571533203 113.181526184082 91.24064636230469 114.0112686157227 91.40483093261719 C 114.8409423828125 91.56896209716797 115.6601638793945 91.73216247558594 116.4720306396484 91.89640808105469 C 117.2839584350586 92.06060791015625 118.0881500244141 92.22484588623047 118.8883819580078 92.39006805419922 Z M 192.0066833496094 293.9857177734375 C 191.6175231933594 294.6936950683594 191.2240295410156 295.4064025878906 190.8268890380859 296.1210632324219 C 190.4297485351562 296.8361511230469 190.0288391113281 297.55322265625 189.6249389648438 298.2726440429688 C 189.2212066650391 298.9916076660156 188.8143768310547 299.7114562988281 188.4052581787109 300.4319152832031 C 187.9962463378906 301.1517944335938 187.5848999023438 301.8726806640625 187.1719665527344 302.5917053222656 L 182.9409027099609 300.2548828125 C 183.3502502441406 299.5419616699219 183.7577514648438 298.82763671875 184.1629028320312 298.1138305664062 C 184.5683135986328 297.3995056152344 184.9716339111328 296.6861877441406 185.3716430664062 295.9733581542969 C 185.7716674804688 295.260498046875 186.1688537597656 294.5490417480469 186.5622711181641 293.840087890625 C 186.9557952880859 293.1319885253906 187.3456573486328 292.4258422851562 187.7310943603516 291.7240295410156 L 192.0066833496094 293.9857177734375 Z M 98.84351348876953 88.58902740478516 L 98.0135498046875 93.62612915039062 C 97.25837707519531 93.49410247802734 96.48687744140625 93.35974884033203 95.69622802734375 93.22309112548828 C 94.90556335449219 93.08592224121094 94.09573364257812 92.94744873046875 93.263671875 92.80522918701172 C 92.43131256103516 92.66297149658203 91.57717895507812 92.51795196533203 90.69795227050781 92.37018585205078 C 89.81830596923828 92.22141265869141 88.91354370117188 92.06940460205078 87.98095703125 91.9132080078125 L 88.76850128173828 86.86264801025391 C 89.70482635498047 87.01995849609375 90.61293029785156 87.17254638671875 91.49604797363281 87.32239532470703 C 92.37895965576172 87.47171020507812 93.23677825927734 87.61827087402344 94.07258605957031 87.76107025146484 C 94.90811157226562 87.90434265136719 95.72161102294922 88.04483032226562 96.51571655273438 88.18202209472656 C 97.30965423583984 88.31967926025391 98.08467864990234 88.45552062988281 98.84351348876953 88.58902740478516 Z M 182.1844787597656 311.1033935546875 C 181.7691955566406 311.7982788085938 181.349853515625 312.4964904785156 180.9273986816406 313.1975708007812 C 180.5047760009766 313.897216796875 180.0789184570312 314.5997314453125 179.6506195068359 315.3037414550781 C 179.2222137451172 316.0068054199219 178.7913055419922 316.7112121582031 178.3585815429688 317.414794921875 C 177.9259643554688 318.1187744140625 177.4916381835938 318.8228454589844 177.0560150146484 319.5249633789062 L 172.9074401855469 317.0553588867188 C 173.3395233154297 316.35888671875 173.7704315185547 315.6599731445312 174.1996154785156 314.9611511230469 C 174.6290435791016 314.2627563476562 175.0566253662109 313.5639343261719 175.4817047119141 312.8656005859375 C 175.9065704345703 312.1672058105469 176.3292388916016 311.4703674316406 176.7485198974609 310.7758178710938 C 177.1678771972656 310.0798950195312 177.5837554931641 309.3872680664062 177.9956207275391 308.6976318359375 L 182.1844787597656 311.1033935546875 Z M 78.67533111572266 85.18910217285156 L 77.90496063232422 90.24893951416016 L 77.87272644042969 90.24383544921875 C 77.0018310546875 90.10089111328125 76.14256286621094 89.95977020263672 75.2919921875 89.81952667236328 C 74.44137573242188 89.67975616455078 73.59957122802734 89.54084777832031 72.76336669921875 89.40382385253906 C 71.92688751220703 89.26529693603516 71.09627532958984 89.12816619873047 70.26771545410156 88.99049377441406 C 69.43923187255859 88.85279083251953 68.61317443847656 88.71552276611328 67.78633117675781 88.57675170898438 L 68.56918334960938 83.51177978515625 C 69.39405059814453 83.650634765625 70.21864318847656 83.78799438476562 71.04615020751953 83.92627716064453 C 71.87336730957031 84.06453704833984 72.70288848876953 84.20225524902344 73.53864288330078 84.34086608886719 C 74.37399291992188 84.47946929931641 75.215087890625 84.61847686767578 76.06486511230469 84.75885009765625 C 76.91459655761719 84.89869689941406 77.77289581298828 85.04041290283203 78.64331817626953 85.18346405029297 L 78.67533111572266 85.18910217285156 Z M 171.7968597412109 327.8585510253906 C 171.3587646484375 328.5408630371094 170.9170989990234 329.2265625 170.4726409912109 329.9137573242188 C 170.0281524658203 330.6004028320312 169.5807189941406 331.2890014648438 169.1314239501953 331.9776611328125 C 168.6819915771484 332.6667175292969 168.23046875 333.3558349609375 167.7777099609375 334.0440979003906 C 167.3250274658203 334.7322082519531 166.8708953857422 335.4195251464844 166.4166564941406 336.1053771972656 L 162.3440551757812 333.5212097167969 C 162.7952575683594 332.8405151367188 163.2462463378906 332.1578979492188 163.6958770751953 331.4739685058594 C 164.1453857421875 330.7899475097656 164.5937652587891 330.1050720214844 165.0400390625 329.4211730957031 C 165.4862823486328 328.7367248535156 165.9305725097656 328.0533142089844 166.3717956542969 327.3709411621094 C 166.8133392333984 326.6889038085938 167.2518310546875 326.0083923339844 167.6868743896484 325.3302612304688 L 171.7968597412109 327.8585510253906 Z M 160.9141693115234 344.2782287597656 C 160.4542236328125 344.9509582519531 159.9912109375 345.6257019042969 159.5260467529297 346.3009033203125 C 159.0608062744141 346.9765930175781 158.5933380126953 347.6523132324219 158.1245574951172 348.3285522460938 C 157.6559448242188 349.0047607421875 157.1855621337891 349.6800842285156 156.7145385742188 350.3530883789062 C 156.2438507080078 351.0269775390625 155.7722930908203 351.6990661621094 155.3008880615234 352.3678283691406 L 151.3017578125 349.680419921875 C 151.7699279785156 349.0154113769531 152.2384185791016 348.34765625 152.7060852050781 347.6784362792969 C 153.1739044189453 347.0087585449219 153.6411590576172 346.337646484375 154.1069183349609 345.6661682128906 C 154.5729064941406 344.99560546875 155.0370483398438 344.3231506347656 155.4991912841797 343.6517639160156 C 155.9613189697266 342.9802551269531 156.4213409423828 342.309814453125 156.8784027099609 341.6417846679688 L 160.9141693115234 344.2782287597656 Z M 58.46996307373047 81.76868438720703 L 57.63797378540039 86.83129119873047 C 56.6987419128418 86.66450500488281 55.78651428222656 86.49988555908203 54.89785766601562 86.33798980712891 C 54.00924682617188 86.17555236816406 53.14447021484375 86.01583099365234 52.30070114135742 85.85737609863281 C 51.45674514770508 85.69937896728516 50.6335563659668 85.54312896728516 49.82855224609375 85.38768005371094 C 49.02338409423828 85.23268890380859 48.23616027832031 85.07799530029297 47.46403884887695 84.92462158203125 L 48.39566040039062 79.87476348876953 C 49.15919494628906 80.02678680419922 49.93795394897461 80.17962646484375 50.73505020141602 80.33378601074219 C 51.5317268371582 80.48838806152344 52.34647369384766 80.64330291748047 53.1822509765625 80.80049133300781 C 54.01784515380859 80.9576416015625 54.87444686889648 81.11654663085938 55.75464630126953 81.27769470214844 C 56.63503265380859 81.43931579589844 57.53911590576172 81.6026611328125 58.46996307373047 81.76868438720703 Z M 149.5767364501953 360.3779602050781 C 149.0925445556641 361.0460510253906 148.6066131591797 361.7132873535156 148.119873046875 362.3796081542969 C 147.6331329345703 363.0458374023438 147.1454925537109 363.7107543945312 146.6578216552734 364.3729553222656 C 146.1701202392578 365.0350341796875 145.6826019287109 365.6952819824219 145.1960754394531 366.3512573242188 C 144.7091979980469 367.0077209472656 144.2234497070312 367.6608581542969 143.7392272949219 368.3079528808594 L 139.8159027099609 365.5188598632812 C 140.2968444824219 364.8751525878906 140.7794799804688 364.2271728515625 141.2627868652344 363.5749816894531 C 141.7463531494141 362.9227600097656 142.2306671142578 362.2677001953125 142.7149505615234 361.6094360351562 C 143.1992034912109 360.9511108398438 143.6836395263672 360.2909240722656 144.1671752929688 359.62890625 C 144.6506958007812 358.9668273925781 145.1333312988281 358.3034362792969 145.6142883300781 357.6400146484375 L 149.5767364501953 360.3779602050781 Z M 38.38086700439453 77.70858001708984 L 37.27363204956055 82.72812652587891 C 36.33390808105469 82.50637054443359 35.42157745361328 82.28530883789062 34.53317260742188 82.06449127197266 C 33.64469146728516 81.84262084960938 32.78015899658203 81.62049102783203 31.93686103820801 81.39715576171875 C 31.0933666229248 81.17374420166016 30.27099800109863 80.94863128662109 29.46702003479004 80.72231292724609 C 28.66286659240723 80.49544525146484 27.87687301635742 80.26638793945312 27.10630798339844 80.03568267822266 L 28.51694679260254 75.0909423828125 C 29.26208305358887 75.31500244140625 30.02278518676758 75.53740692138672 30.80190467834473 75.75762939453125 C 31.58048820495605 75.97731018066406 32.37772750854492 76.19530487060547 33.19598388671875 76.41259765625 C 34.01418304443359 76.62983703613281 34.85337829589844 76.84586334228516 35.71641159057617 77.06114959716797 C 36.57962799072266 77.27738189697266 37.46691513061523 77.49287414550781 38.38086700439453 77.70858001708984 Z M 18.99171447753906 71.69954681396484 L 17.02962684631348 76.45163726806641 C 16.05777168273926 76.03678894042969 15.13128471374512 75.61647033691406 14.24720573425293 75.18874359130859 C 13.36288833618164 74.76041412353516 12.52088356018066 74.32415008544922 11.71872138977051 73.87901306152344 C 10.91597843170166 73.43376159667969 10.15335655212402 72.98012542724609 9.427248001098633 72.51463317871094 C 8.701339721679688 72.050537109375 8.012221336364746 71.57456970214844 7.357158184051514 71.08679962158203 L 10.41031265258789 66.95449066162109 C 10.97157955169678 67.37318420410156 11.57294178009033 67.78652191162109 12.21362686157227 68.19500732421875 C 12.8540506362915 68.60291290283203 13.53327083587646 69.00595855712891 14.25039386749268 69.40265655517578 C 14.96722888946533 69.79927825927734 15.7214412689209 70.18906402587891 16.51213073730469 70.57199859619141 C 17.30275535583496 70.95484924316406 18.12970542907715 71.33085632324219 18.99171447753906 71.69954681396484 Z" stroke="none" fill="#faad5d"/>
    </g>
    <g id="Pfad_7" data-name="Pfad 7" transform="translate(-200.197 370.128)" fill="none" stroke-dasharray="10">
      <path d="M139.887.971s-7.435,3.761-18.625,9.647C109.835,16.63,94.281,24.971,78.4,33.973c-16.484,9.342-33.541,19.52-46.8,28.614C17.692,72.13,7.867,80.55,7.412,85.5c-.48,5.226,9.4,6.006,25.063,4.209,16.356-1.878,38.848-6.548,62.139-11.806,24.138-5.449,48.962-11.49,68.65-15.685,20.307-4.326,35.081-6.672,38.11-4.4" stroke="none"/>
      <path d="M 5.094392776489258 87.49984741210938 L 9.835370063781738 85.59938049316406 C 9.873416900634766 85.76797485351562 9.926092147827148 85.93144989013672 9.993431091308594 86.0897216796875 C 10.06089782714844 86.24813842773438 10.1429615020752 86.40138244628906 10.23952579498291 86.54917907714844 C 10.33633899688721 86.69711303710938 10.44770050048828 86.83943939208984 10.57339763641357 86.97597503662109 C 10.6994047164917 87.11277008056641 10.839919090271 87.24367523193359 10.99477577209473 87.36846160888672 L 6.284981250762939 89.43466949462891 C 6.122839450836182 89.29788970947266 5.976183414459229 89.15437316894531 5.84516716003418 89.00453948974609 C 5.714491367340088 88.85492706298828 5.599393367767334 88.69908142089844 5.500082969665527 88.53733062744141 C 5.400919914245605 88.37576293945312 5.317471981048584 88.20810699462891 5.249772548675537 88.03499603271484 C 5.182214260101318 87.86212921142578 5.130394458770752 87.68362426757812 5.094392776489258 87.49984741210938 Z M 5.392426013946533 85.02999114990234 C 5.473391056060791 84.8118896484375 5.568516731262207 84.5872802734375 5.677461624145508 84.35659790039062 C 5.786184787750244 84.12662506103516 5.908726692199707 83.89057159423828 6.044694423675537 83.64906311035156 C 6.180437564849854 83.40813446044922 6.329609870910645 83.16172790527344 6.491934776306152 82.91027069091797 C 6.653921127319336 82.65946197509766 6.829004764556885 82.403564453125 7.016914844512939 82.14318084716797 L 11.52651023864746 80.64007568359375 C 11.35452365875244 80.883056640625 11.19457244873047 81.12169647216797 11.04699325561523 81.35552978515625 C 10.89918422698975 81.58988189697266 10.7637243270874 81.81938171386719 10.6409387588501 82.04365539550781 C 10.51785755157471 82.26840209960938 10.40755462646484 82.48789215087891 10.31017780303955 82.70163726806641 C 10.21262359619141 82.91595458984375 10.12810039520264 83.12442779541016 10.0568323135376 83.32691955566406 L 5.392426013946533 85.02999114990234 Z M 9.708426475524902 78.966796875 C 9.960735321044922 78.70287322998047 10.22409248352051 78.43399810791016 10.4980583190918 78.16059112548828 C 10.77156829833984 77.88763427734375 11.05557346343994 77.61015319824219 11.34953880310059 77.32868194580078 C 11.64299964904785 77.04770660400391 11.94632625579834 76.76285552978516 12.2591381072998 76.47445678710938 C 12.57136249542236 76.18670654296875 12.89291667938232 75.89548492431641 13.22338581085205 75.60125732421875 L 17.34246826171875 74.44228363037109 C 17.02977180480957 74.72306060791016 16.72558784484863 75.00084686279297 16.43057250976562 75.27523803710938 C 16.13495826721191 75.55012512207031 15.84849643707275 75.82164001464844 15.5716495513916 76.08910369873047 C 15.29429149627686 76.35707855224609 15.02660846710205 76.62115478515625 14.769118309021 76.88084411621094 C 14.51117515563965 77.14106750488281 14.26340007781982 77.39678955078125 14.02642059326172 77.64749145507812 L 9.708426475524902 78.966796875 Z M 8.963111877441406 90.77603912353516 L 13.53822231292725 88.58970642089844 C 13.79916477203369 88.66654968261719 14.07500267028809 88.73843383789062 14.36531257629395 88.80514526367188 C 14.65616893768311 88.87204742431641 14.96134471893311 88.93367004394531 15.2805643081665 88.99012756347656 C 15.60032939910889 89.04673767089844 15.934157371521 89.09798431396484 16.28132629394531 89.14395904541016 C 16.6291389465332 89.18991088867188 16.99053382873535 89.23063659667969 17.36484336853027 89.26561737060547 L 12.99833869934082 91.52572631835938 C 12.60310077667236 91.48590850830078 12.22157573699951 91.44026184082031 11.85445308685303 91.38886260986328 C 11.48806476593018 91.33749389648438 11.13602542877197 91.2803955078125 10.79876327514648 91.21770477294922 C 10.46224308013916 91.15508270263672 10.14050006866455 91.08676910400391 9.834092140197754 91.01316070556641 C 9.52835750579834 90.93951416015625 9.237826347351074 90.8603515625 8.963111877441406 90.77603912353516 Z M 17.35668182373047 72.12308502197266 C 17.70990562438965 71.83998870849609 18.07184219360352 71.55297088623047 18.44191360473633 71.26248168945312 C 18.811279296875 70.97242736816406 19.18875694274902 70.67906188964844 19.57351875305176 70.38266754150391 C 19.9576416015625 70.08695220947266 20.34906768798828 69.78824615478516 20.74713516235352 69.48714447021484 C 21.14445686340332 69.18663787841797 21.54844665527344 68.88360595703125 21.95830917358398 68.57884216308594 L 25.71472358703613 67.66950225830078 C 25.31955909729004 67.96488189697266 24.93033599853516 68.25843048095703 24.54754066467285 68.54954528808594 C 24.16410064697266 68.84117889404297 23.78725242614746 69.13037872314453 23.41753196716309 69.41666412353516 C 23.04726409912109 69.70351409912109 22.68421173095703 69.98737335205078 22.32903671264648 70.26789093017578 C 21.9732837677002 70.54895782470703 21.62545585632324 70.82647705078125 21.2862720489502 71.10004425048828 L 17.35668182373047 72.12308502197266 Z M 18.1912899017334 91.73197937011719 L 22.3115119934082 89.43548583984375 C 22.75043869018555 89.43020629882812 23.20306777954102 89.42069244384766 23.66856956481934 89.40653991699219 C 24.13480758666992 89.39241027832031 24.61404228210449 89.37367248535156 25.10531806945801 89.35060119628906 C 25.59742546081543 89.32760620117188 26.10159111022949 89.29998779296875 26.61715888977051 89.26774597167969 C 27.1336669921875 89.23558044433594 27.66136932373047 89.19904327392578 28.19963836669922 89.15811157226562 L 24.33520698547363 91.46530914306641 C 23.77374649047852 91.50631713867188 23.22311401367188 91.54261016845703 22.6843204498291 91.57424163818359 C 22.14642143249512 91.60581207275391 21.62032508850098 91.63282775878906 21.10679054260254 91.65505218505859 C 20.59419822692871 91.67734527587891 20.09419441223145 91.69486999511719 19.60757064819336 91.7076416015625 C 19.12182235717773 91.72043609619141 18.64946174621582 91.728515625 18.1912899017334 91.73197937011719 Z M 26.91231727600098 65.00263977050781 C 27.32407379150391 64.71331787109375 27.74284934997559 64.42063140869141 28.1679630279541 64.12541961669922 C 28.59247779846191 63.83061218261719 29.02325630187988 63.53306198120117 29.45956039428711 63.23334503173828 C 29.89523315429688 62.93406677246094 30.33637046813965 62.63277816772461 30.78227233886719 62.32981491088867 C 31.22747421264648 62.02724456787109 31.67738342285156 61.72314834594727 32.1312370300293 61.41790008544922 L 35.59603118896484 60.68222808837891 C 35.15359497070312 60.98101425170898 34.7150993347168 61.27867889404297 34.28134918212891 61.57465744018555 C 33.84693908691406 61.87102508544922 33.41723251342773 62.1657600402832 32.99298095703125 62.4585075378418 C 32.56816864013672 62.75153350830078 32.14874267578125 63.04251098632812 31.73564147949219 63.33063125610352 C 31.32185554504395 63.61924743652344 30.91438293457031 63.90522766113281 30.51392364501953 64.18795776367188 L 26.91231727600098 65.00263977050781 Z M 31.24733352661133 90.79866790771484 L 34.86386489868164 88.49634552001953 C 35.42703628540039 88.42941284179688 36.00262451171875 88.35829925537109 36.58943557739258 88.28350067138672 C 37.17726516723633 88.20851135253906 37.7763786315918 88.1298828125 38.3858528137207 88.04747009277344 C 38.99632263183594 87.96485900878906 39.6170539855957 87.878662109375 40.24716186523438 87.78877258300781 C 40.87825775146484 87.69892883300781 41.5186882019043 87.60544586181641 42.16743469238281 87.50863647460938 L 38.78301620483398 89.79698181152344 C 38.11393737792969 89.89546203613281 37.45338821411133 89.99052429199219 36.80239105224609 90.08177947998047 C 36.15237426757812 90.17292785644531 35.51190948486328 90.26049041748047 34.8820686340332 90.34406280517578 C 34.25324249267578 90.42768096923828 33.63500213623047 90.50745391845703 33.02836227416992 90.58332824707031 C 32.42272186279297 90.65910339355469 31.82865905761719 90.73086547851562 31.24733352661133 90.79866790771484 Z M 37.55287170410156 57.83834838867188 C 37.99926376342773 57.54860305786133 38.45156097412109 57.25630187988281 38.90901184082031 56.96167755126953 C 39.36579895019531 56.66750335693359 39.8277587890625 56.37118148803711 40.29388427734375 56.07318496704102 C 40.75947952270508 55.77569580078125 41.22922515869141 55.47648239135742 41.7025032043457 55.17607498168945 C 42.17505264282227 54.87620162963867 42.651123046875 54.57532119750977 43.12971496582031 54.27371597290039 L 46.36806106567383 53.65963363647461 C 45.89819717407227 53.95679092407227 45.43102645874023 54.25318145751953 44.96725082397461 54.54841613769531 C 44.50285720825195 54.84421920776367 44.04191589355469 55.13875579833984 43.58522415161133 55.43171691894531 C 43.12789154052734 55.72509002685547 42.6748161315918 56.01677703857422 42.22689819335938 56.30628967285156 C 41.77825546264648 56.59615707397461 41.33478546142578 56.88384628295898 40.89725875854492 57.16882705688477 L 37.55287170410156 57.83834838867188 Z M 46.83096694946289 88.51505279541016 L 50.00214767456055 86.24525451660156 C 50.65054321289062 86.13393402099609 51.31055068969727 86.01901245117188 51.9808235168457 85.90079498291016 C 52.65209579467773 85.78241729736328 53.33376693725586 85.66064453125 54.02467346191406 85.53578186035156 C 54.71657562255859 85.41072082519531 55.41769409179688 85.28258514404297 56.12685012817383 85.15162658691406 C 56.83706283569336 85.02034759521484 57.55533599853516 84.88624572753906 58.28056716918945 84.74922943115234 L 55.30298233032227 86.99859619140625 C 54.56110000610352 87.13742065429688 53.82619476318359 87.27351379394531 53.09946441650391 87.40673065185547 C 52.373779296875 87.53959655761719 51.65631866455078 87.66945648193359 50.94818496704102 87.796142578125 C 50.24115753173828 87.92262268066406 49.54343414306641 88.04606628417969 48.85638809204102 88.16606140136719 C 48.17031478881836 88.285888671875 47.49473571777344 88.40227508544922 46.83096694946289 88.51505279541016 Z M 48.82542037963867 50.73056030273438 C 49.29269409179688 50.44334030151367 49.7651481628418 50.15382766723633 50.24180221557617 49.8624382019043 C 50.71784591674805 49.57147979736328 51.19812393188477 49.27869415283203 51.68183135986328 48.98471069335938 C 52.16487121582031 48.69102478027344 52.65130615234375 48.39613723754883 53.14023590087891 48.10042953491211 C 53.62860488891602 47.80515289306641 54.11948394775391 47.50918579101562 54.61193466186523 47.21292877197266 L 57.67425918579102 46.68542098999023 C 57.18857955932617 46.97843170166016 56.70461273193359 47.2712287902832 56.2231330871582 47.56324005126953 C 55.74107360839844 47.85561752319336 55.26149368286133 48.14719390869141 54.78533172607422 48.43739318847656 C 54.30852127075195 48.72810363769531 53.83514404296875 49.01748657226562 53.36599349975586 49.30510711669922 C 52.89620208740234 49.59318542480469 52.43067932128906 49.87941360473633 51.97028732299805 50.16330718994141 L 48.82542037963867 50.73056030273438 Z M 64.13371276855469 85.28475189208984 L 66.93647766113281 83.05597686767578 C 67.64366149902344 82.91329193115234 68.36249542236328 82.76711273193359 69.09166717529297 82.61801147460938 C 69.82170104980469 82.46855163574219 70.56217193603516 82.31602478027344 71.31180572509766 82.16085052490234 C 72.06240844726562 82.00539398193359 72.82212829589844 81.84703063964844 73.58973693847656 81.68606567382812 C 74.35831451416016 81.52488708496094 75.13484954833984 81.36115264892578 75.91795349121094 81.19523620605469 L 73.27207946777344 83.40467071533203 C 72.47544097900391 83.57237243652344 71.68556976318359 83.73786926269531 70.90371704101562 83.90077972412109 C 70.12275695800781 84.06330871582031 69.34980010986328 84.22327423095703 68.58610534667969 84.38041687011719 C 67.82341766357422 84.53742218017578 67.06995391845703 84.69139099121094 66.32698822021484 84.84234619140625 C 65.58502197265625 84.99298858642578 64.85346984863281 85.14058685302734 64.13371276855469 85.28475189208984 Z M 60.46791839599609 43.72384643554688 C 60.94800186157227 43.44046401977539 61.43257522583008 43.15499496459961 61.92066192626953 42.86809539794922 C 62.40823364257812 42.5814208984375 62.89936828613281 42.29341506958008 63.39323806762695 42.00419998168945 C 63.88647842407227 41.71546936035156 64.3824462890625 41.42575836181641 64.88025665283203 41.13551330566406 C 65.37741851806641 40.84575271606445 65.87649536132812 40.55538177490234 66.37648010253906 40.26497268676758 L 69.30050659179688 39.80037307739258 C 68.80587005615234 40.08834838867188 68.31221771240234 40.37636184692383 67.82041168212891 40.66385650634766 C 67.32804107666016 40.95166015625 66.83751678466797 41.23901748657227 66.34969329833984 41.52528762817383 C 65.86130523681641 41.81201553344727 65.37562561035156 42.09765625 64.89353179931641 42.38175201416016 C 64.41082763671875 42.66626739501953 63.93171310424805 42.94919586181641 63.45707702636719 43.2302360534668 L 60.46791839599609 43.72384643554688 Z M 82.67556762695312 81.38451385498047 L 85.18205261230469 79.19267272949219 C 85.93621826171875 79.02694702148438 86.69598388671875 78.85923004150391 87.46408843994141 78.689208984375 C 88.23305511474609 78.5189208984375 89.01045227050781 78.34614562988281 89.79901123046875 78.17025756835938 C 90.58850860595703 77.99420166015625 91.38922882080078 77.81509399414062 92.20393371582031 77.63207244873047 C 93.01973724365234 77.44901275634766 93.84958648681641 77.26207733154297 94.69643402099609 77.07091522216797 L 92.31195068359375 79.2479248046875 C 91.45442962646484 79.44039154052734 90.61405944824219 79.62854766845703 89.7879638671875 79.81294250488281 C 88.96288299560547 79.99714660644531 88.15190887451172 80.17758178710938 87.35228729248047 80.35485076904297 C 86.55364990234375 80.5318603515625 85.76621246337891 80.70587158203125 84.98727416992188 80.87736511230469 C 84.20924377441406 81.04871368408203 83.43968200683594 81.21764373779297 82.67556762695312 81.38451385498047 Z M 72.32448577880859 36.83717727661133 C 72.81239318847656 36.55808258056641 73.30425262451172 36.27721405029297 73.79913330078125 35.99506759643555 C 74.29347229003906 35.71326065063477 74.79090118408203 35.43017959594727 75.29041290283203 35.14621734619141 C 75.78942108154297 34.86270523071289 76.29057312011719 34.57844924926758 76.79306793212891 34.29396057128906 C 77.294921875 34.00967788696289 77.79814147949219 33.72522735595703 78.30170440673828 33.44093322753906 L 81.11536407470703 33.02280426025391 C 80.61602020263672 33.30521774291992 80.1171875 33.5880241394043 79.61962127685547 33.87054061889648 C 79.12152099609375 34.15327072143555 78.62469482421875 34.43567657470703 78.13002014160156 34.71743774414062 C 77.63484191894531 34.99955368041992 77.14186096191406 35.28084945678711 76.65190887451172 35.56085968017578 C 76.16136169433594 35.84116363525391 75.67387390136719 36.12018966674805 75.19037628173828 36.39758682250977 L 72.32448577880859 36.83717727661133 Z M 102.1514511108398 77.01594543457031 L 104.4321136474609 74.85069274902344 C 105.1750640869141 74.67970275878906 105.9350662231445 74.50473022460938 106.7148742675781 74.32492065429688 C 107.4955520629883 74.14468383789062 108.2961502075195 73.95958709716797 109.1196365356445 73.76907348632812 C 109.9441452026367 73.57833862304688 110.7915191650391 73.38186645507812 111.6649856567383 73.17916870117188 C 112.5394668579102 72.97629547119141 113.4401779174805 72.76710510253906 114.3699035644531 72.55085754394531 L 112.173583984375 74.70841217041016 C 111.2362060546875 74.92539215087891 110.3281707763672 75.13528442382812 109.4463043212891 75.33877563476562 C 108.5656051635742 75.5421142578125 107.7110824584961 75.73919677734375 106.8795928955078 75.93064117431641 C 106.0491104125977 76.12178802490234 105.2416458129883 76.30740356445312 104.4542388916016 76.48827362060547 C 103.6677474975586 76.6688232421875 102.9011001586914 76.84442138671875 102.1514511108398 77.01594543457031 Z M 84.30023956298828 30.07597732543945 C 84.79301452636719 29.80130004882812 85.28926086425781 29.52495193481445 85.78804779052734 29.24765014648438 C 86.28636169433594 28.97062110900879 86.78724670410156 28.6926441192627 87.289794921875 28.41394805908203 C 87.79184722900391 28.13567733764648 88.2955322265625 27.85680770874023 88.80010223388672 27.57790565490723 C 89.30409240722656 27.29929542541504 89.80882263183594 27.02058792114258 90.3135986328125 26.74235153198242 L 93.03736877441406 26.3592700958252 C 92.53612518310547 26.63619422912598 92.03488922119141 26.91357803344727 91.53445434570312 27.19091033935547 C 91.03343963623047 27.46842384338379 90.53326416015625 27.74584770202637 90.03482818603516 28.02289390563965 C 89.53584289550781 28.30013465881348 89.03847503662109 28.57674789428711 88.54373168945312 28.85241317749023 C 88.04853057861328 29.12835121154785 87.55590057373047 29.40321922302246 87.06674957275391 29.67658042907715 L 84.30023956298828 30.07597732543945 Z M 122.349739074707 72.34758758544922 L 124.4847183227539 70.19237518310547 L 124.517219543457 70.18482208251953 C 125.3974990844727 69.97908020019531 126.2667541503906 69.77622985839844 127.1279754638672 69.57528686523438 C 127.9901657104492 69.37405395507812 128.8442993164062 69.17473602294922 129.6934356689453 68.97657012939453 C 130.5437469482422 68.77834320068359 131.3890228271484 68.58119964599609 132.2325592041016 68.38481903076172 C 133.0769958496094 68.18813323974609 133.9197235107422 67.99200439453125 134.7637786865234 67.79586791992188 L 132.6619873046875 69.95537567138672 C 131.8158721923828 70.15114593505859 130.9710083007812 70.34683227539062 130.1239471435547 70.54306793212891 C 129.2778930664062 70.73906707763672 128.4299621582031 70.9356689453125 127.5768432617188 71.13358306884766 C 126.7247619628906 71.33120727539062 125.8675918579102 71.53028106689453 125.0023803710938 71.7313232421875 C 124.1381149291992 71.9320068359375 123.2659072875977 72.13477325439453 122.3822937011719 72.33992004394531 L 122.349739074707 72.34758758544922 Z M 96.33633422851562 23.43982696533203 C 96.83212280273438 23.1693286895752 97.3309326171875 22.89761734008789 97.83174896240234 22.62506675720215 C 98.33213043212891 22.35284996032715 98.8345947265625 22.07977294921875 99.33822631835938 21.80644798278809 C 99.84133911132812 21.53340148925781 100.3456420898438 21.26001930236816 100.8503646850586 20.98675346374512 C 101.3544921875 20.71379852294922 101.8590316772461 20.44106292724609 102.3629302978516 20.16888809204102 L 105.0115737915039 19.81326675415039 C 104.5105895996094 20.0843448638916 104.0090560913086 20.35605239868164 103.5079116821289 20.6279125213623 C 103.0062026977539 20.90010070800781 102.5048751831055 21.17244529724121 102.0047760009766 21.44438743591309 C 101.5041046142578 21.71671295166016 101.0047225952148 21.98864555358887 100.5073928833008 22.25985908508301 C 100.0095291137695 22.53128051757812 99.51380157470703 22.80187797546387 99.02103424072266 23.07124328613281 L 96.33633422851562 23.43982696533203 Z M 108.3989486694336 16.9245548248291 C 108.8982009887695 16.65752220153809 109.3996887207031 16.38953590393066 109.9026336669922 16.12109375 C 110.405158996582 15.85287094116211 110.909049987793 15.58429050445557 111.4134902954102 15.31562423706055 C 111.9174041748047 15.04721355438232 112.4219284057617 14.77893352508545 112.9260787963867 14.5110969543457 C 113.429817199707 14.24346351623535 113.9331130981445 13.97641849517822 114.435302734375 13.71024608612061 L 117.0180740356445 13.37734508514404 C 116.5186004638672 13.64260292053223 116.0178985595703 13.90882587432861 115.5168533325195 14.17543125152588 C 115.0153961181641 14.44240283966064 114.513542175293 14.70986270904541 114.0122604370117 14.9772834777832 C 113.5104522705078 15.24495887756348 113.00927734375 15.51271820068359 112.5094985961914 15.779953956604 C 112.0092620849609 16.04751014709473 111.5104293823242 16.31454277038574 111.0138549804688 16.58067893981934 L 108.3989486694336 16.9245548248291 Z M 143.07568359375 67.56167602539062 L 145.1814727783203 65.38881683349609 C 146.1507415771484 65.16671752929688 147.0928649902344 64.95130920410156 148.010986328125 64.74234008789062 C 148.9302215576172 64.53299713134766 149.8251953125 64.32973480224609 150.6990356445312 64.13204956054688 C 151.5739135742188 63.93407440185547 152.4274291992188 63.74177551269531 153.2626953125 63.5542106628418 C 154.0989837646484 63.36652374267578 154.9167938232422 63.18356323242188 155.7192993164062 63.00492095947266 L 153.5566558837891 65.20353698730469 C 152.7594909667969 65.38018798828125 151.9466857910156 65.56084442138672 151.1155090332031 65.74638366699219 C 150.2852478027344 65.93172454833984 149.4364929199219 66.12200927734375 148.5663452148438 66.31782531738281 C 147.6972503662109 66.51328277587891 146.8067626953125 66.71429443359375 145.8920135498047 66.92169952392578 C 144.9784545898438 67.12857818603516 144.0406036376953 67.34175109863281 143.07568359375 67.56167602539062 Z M 120.4749526977539 10.52338314056396 C 120.9808654785156 10.25762939453125 121.4876098632812 9.991828918457031 121.9943389892578 9.726293563842773 C 122.5005187988281 9.461002349853516 123.006721496582 9.19608211517334 123.5120086669922 8.931938171386719 C 124.0167922973633 8.668088912963867 124.520637512207 8.405007362365723 125.0226211547852 8.143056869506836 C 125.5242156982422 7.88145112991333 126.0239868164062 7.621020317077637 126.521110534668 7.362381458282471 L 129.0404510498047 7.051482200622559 C 128.5459899902344 7.309238910675049 128.0488891601562 7.5686354637146 127.5500106811523 7.829367160797119 C 127.0506362915039 8.090229988098145 126.5494384765625 8.352431297302246 126.0474014282227 8.615408897399902 C 125.5448150634766 8.878623962402344 125.0413284301758 9.14256477355957 124.5378036499023 9.406922340393066 C 124.0337600708008 9.67152214050293 123.5297546386719 9.936493873596191 123.0265045166016 10.20125579833984 L 120.4749526977539 10.52338314056396 Z M 164.0470581054688 62.93705368041992 L 166.3482055664062 60.69443893432617 C 167.3316040039062 60.48703384399414 168.2864990234375 60.28746032714844 169.2158966064453 60.09521484375 C 170.1467895507812 59.90272521972656 171.0522003173828 59.71769714355469 171.9351806640625 59.53973388671875 C 172.8194274902344 59.36137008666992 173.6810150146484 59.18973922729492 174.5230255126953 59.0244255065918 C 175.3662109375 58.85880661010742 176.1899719238281 58.69968032836914 176.9969940185547 58.54590606689453 L 174.4179992675781 60.85942459106445 C 173.6348114013672 61.00739288330078 172.8347015380859 61.16082763671875 172.0147552490234 61.32045745849609 C 171.1961212158203 61.48001861572266 170.3576507568359 61.64575576782227 169.4965362548828 61.81829071044922 C 168.6366119384766 61.99058532714844 167.7542114257812 62.16965103149414 166.8463287353516 62.35622406005859 C 165.9395751953125 62.54230499267578 165.0074920654297 62.73571014404297 164.0470581054688 62.93705368041992 Z M 184.4085083007812 59.15365219116211 L 187.5339660644531 56.72934341430664 C 188.5467224121094 56.57868957519531 189.5091094970703 56.44404602050781 190.4241943359375 56.32568740844727 C 191.341064453125 56.20690536499023 192.2104034423828 56.10436248779297 193.0345764160156 56.01765823364258 C 193.8606414794922 55.93083953857422 194.6414489746094 55.85988235473633 195.3797607421875 55.8046875 C 196.1194915771484 55.74919128417969 196.8167419433594 55.70948028564453 197.4741668701172 55.68538284301758 L 193.2355651855469 58.24144744873047 C 192.6731567382812 58.26005554199219 192.0650634765625 58.2933349609375 191.4123992919922 58.34107971191406 C 190.7609252929688 58.3889274597168 190.0651397705078 58.45092391967773 189.3265380859375 58.52735137939453 C 188.5892944335938 58.60348892211914 187.8095550537109 58.69412612915039 186.9886474609375 58.79870223999023 C 186.1691436767578 58.90312957763672 185.3086547851562 59.02156066894531 184.4085083007812 59.15365219116211 Z" stroke="none" fill="#faad5d"/>
    </g>
    <g id="Pfad_8" data-name="Pfad 8" transform="translate(-232.376 401.025)" fill="none" stroke-dasharray="10">
      <path d="M7.708,159.238s12.313-7.085,30.276-18.106C55.4,130.444,77.712,116.312,98.7,101.717c20-13.9,38.55-28.06,50.6-40.066,11.413-11.373,16.967-20.793,12.522-26.368-4.225-5.3-17.009-6.615-33.52-5.868-15.935.721-35.52,3.372-54.445,6.292-18.44,2.845-36.379,5.966-49.724,7.818C11.065,45.34,2.362,45.944,1.976,43.87" stroke="none"/>
      <path d="M 163.0319976806641 33.3611946105957 L 158.4514770507812 34.97200775146484 C 158.2439727783203 34.79031753540039 158.0222320556641 34.61322784423828 157.7867279052734 34.44114303588867 C 157.5518798828125 34.2696533203125 157.30322265625 34.10288238525391 157.0413665771484 33.94125747680664 C 156.7801361083984 33.78019714355469 156.5058746337891 33.6242790222168 156.2188568115234 33.47385406494141 C 155.9324035644531 33.32372283935547 155.63330078125 33.17895889282227 155.3221130371094 33.03998565673828 L 159.6081085205078 31.29968452453613 C 159.9472808837891 31.44754028320312 160.2735290527344 31.6016788482666 160.5863342285156 31.76172065734863 C 160.8997497558594 31.92207717895508 161.1996612548828 32.08836364746094 161.4853973388672 32.26014709472656 C 161.7718505859375 32.43254470825195 162.0443725585938 32.61076736450195 162.302001953125 32.79397964477539 C 162.5602569580078 32.97768783569336 162.8036804199219 33.16692352294922 163.0319976806641 33.3611946105957 Z M 165.0951385498047 35.97991561889648 C 165.2056427001953 36.21249389648438 165.3034515380859 36.4517936706543 165.3882598876953 36.6976203918457 C 165.47314453125 36.94368362426758 165.5451965332031 37.19610214233398 165.6038970947266 37.45451354980469 C 165.6628112792969 37.71322250366211 165.70849609375 37.97799301147461 165.740966796875 38.24831390380859 C 165.7732849121094 38.5190315246582 165.792236328125 38.79531097412109 165.7977142333984 39.07648086547852 L 160.9154357910156 40.33437347412109 C 160.9149780273438 40.06974029541016 160.9021148681641 39.80974578857422 160.8763732910156 39.55505752563477 C 160.8507995605469 39.30075454711914 160.8127746582031 39.05169296264648 160.7623596191406 38.80826568603516 C 160.7120056152344 38.56515502929688 160.6493988037109 38.32780838012695 160.5745849609375 38.09648132324219 C 160.4998474121094 37.86532592773438 160.4129943847656 37.64030456542969 160.3141021728516 37.42155075073242 L 165.0951385498047 35.97991561889648 Z M 165.2775421142578 42.55435180664062 C 165.1910247802734 42.84731674194336 165.0930633544922 43.14607620239258 164.9840545654297 43.45023727416992 C 164.8748626708984 43.75513458251953 164.7544708251953 44.0654411315918 164.6231994628906 44.3806266784668 C 164.4916534423828 44.69643402099609 164.3490142822266 45.01723480224609 164.1955718994141 45.34223937988281 C 164.041748046875 45.66786956787109 163.8771514892578 45.99800109863281 163.7018890380859 46.33203125 L 158.8124084472656 47.24004364013672 C 158.9840545654297 46.92074584960938 159.1455993652344 46.60520553588867 159.2966613769531 46.2939338684082 C 159.4474487304688 45.98324203491211 159.5879211425781 45.67684555053711 159.7178802490234 45.37540054321289 C 159.8477172851562 45.07443618774414 159.9668579101562 44.77798080444336 160.0753021240234 44.48689651489258 C 160.1835174560547 44.19622039794922 160.2812194824219 43.91104125976562 160.3679046630859 43.63134765625 L 165.2775421142578 42.55435180664062 Z M 154.9753875732422 29.8134593963623 L 151.0447082519531 31.63553810119629 C 150.6557006835938 31.54242134094238 150.2534484863281 31.45327377319336 149.8389587402344 31.36861991882324 C 149.4251251220703 31.28399085998535 148.9990234375 31.20394897460938 148.5613098144531 31.12815856933594 C 148.1242828369141 31.0523738861084 147.6759643554688 30.98110198974609 147.2168121337891 30.91443634033203 C 146.758544921875 30.8477897644043 146.2894287109375 30.78561592102051 145.8104553222656 30.72821807861328 L 149.3706817626953 28.86754417419434 C 149.8822479248047 28.92711448669434 150.3834686279297 28.9913330078125 150.8734893798828 29.06062507629395 C 151.364501953125 29.12983322143555 151.8442840576172 29.20401763916016 152.3121795654297 29.28294563293457 C 152.7808685302734 29.36201095581055 153.2375183105469 29.4456958770752 153.6812286376953 29.53396987915039 C 154.1258392333984 29.62265014648438 154.5576171875 29.71584320068359 154.9753875732422 29.8134593963623 Z M 161.2310638427734 50.34299850463867 C 160.9995574951172 50.67465591430664 160.7580718994141 51.01137924194336 160.5071258544922 51.35260009765625 C 160.2559051513672 51.69477081298828 159.9950408935547 52.04128646850586 159.7252807617188 52.39207077026367 C 159.4548187255859 52.74317169189453 159.1753387451172 53.09852600097656 158.8873138427734 53.45743560791016 C 158.5986938476562 53.81698226928711 158.3014831542969 54.17996215820312 157.9960479736328 54.54587173461914 L 153.2158813476562 55.15874099731445 C 153.5151214599609 54.80489349365234 153.8063049316406 54.45393371582031 154.0891876220703 54.10624694824219 C 154.3714904785156 53.75928115844727 154.6454467773438 53.41579818725586 154.9107360839844 53.07628631591797 C 155.1754150390625 52.73734283447266 155.4314117431641 52.40234756469727 155.6781311035156 52.07194519042969 C 155.92431640625 51.74197006225586 156.1613006591797 51.41659545898438 156.3888244628906 51.09643173217773 L 161.2310638427734 50.34299850463867 Z M 143.0442810058594 28.39158248901367 L 139.833251953125 30.25924491882324 C 139.3278198242188 30.23741149902344 138.8110961914062 30.21876335144043 138.2842254638672 30.20347595214844 C 137.7580413818359 30.18842506408691 137.2216491699219 30.17659759521484 136.6760864257812 30.16825485229492 C 136.1312103271484 30.159912109375 135.5771026611328 30.155029296875 135.0149078369141 30.15356826782227 C 134.4534454345703 30.15209579467773 133.8836975097656 30.15398216247559 133.3066864013672 30.1592845916748 L 136.2098541259766 28.30380058288574 C 136.8128662109375 28.29697608947754 137.4086456298828 28.29366302490234 137.9960174560547 28.29394340515137 C 138.5842590332031 28.29422569274902 139.1641845703125 28.29788208007812 139.7346954345703 28.30522918701172 C 140.3060150146484 28.31234359741211 140.8680114746094 28.32318496704102 141.4195709228516 28.33779907226562 C 141.9719085693359 28.35220336914062 142.5138702392578 28.37007331848145 143.0442810058594 28.39158248901367 Z M 154.1044158935547 58.90796279907227 C 153.7656097412109 59.26646423339844 153.4180450439453 59.62964248657227 153.0622100830078 59.99691390991211 C 152.7056579589844 60.3646354675293 152.3411102294922 60.73654174804688 151.9688720703125 61.1119384765625 C 151.5959167480469 61.48783493041992 151.2153778076172 61.86712646484375 150.8277587890625 62.2491569519043 C 150.4395751953125 62.63192367553711 150.0442962646484 63.01759719848633 149.6426086425781 63.4051399230957 L 145.0047302246094 63.77325057983398 C 145.3996734619141 63.39555358886719 145.7883605957031 63.0198860168457 146.1701202392578 62.6470832824707 C 146.5513763427734 62.27481842041016 146.9257659912109 61.90544128417969 147.2925109863281 61.53922271728516 C 147.6587677001953 61.17367172241211 148.0174713134766 60.81155395507812 148.3681793212891 60.45339202880859 C 148.7183990478516 60.09598922729492 149.0603637695312 59.74216842651367 149.3938446044922 59.3931884765625 L 154.1044158935547 58.90796279907227 Z M 129.0317993164062 28.52765846252441 L 126.3894348144531 30.36103630065918 C 125.8216247558594 30.38758659362793 125.2444152832031 30.41714477539062 124.6585922241211 30.4492015838623 C 124.073486328125 30.48134422302246 123.4798355102539 30.5159797668457 122.8788070678711 30.55319404602051 C 122.2785491943359 30.59036254882812 121.6709442138672 30.63020515441895 121.0568771362305 30.67236518859863 C 120.4436492919922 30.71448516845703 119.823974609375 30.75915908813477 119.1991348266602 30.80621910095215 L 121.6259994506836 28.99863052368164 C 122.2687759399414 28.94918632507324 122.9062652587891 28.90219879150391 123.5375442504883 28.85779571533203 C 124.1695098876953 28.81331062316895 124.7951812744141 28.77127838134766 125.4135360717773 28.73203086853027 C 126.032600402832 28.69272232055664 126.6441421508789 28.65582466125488 127.2471694946289 28.62178611755371 C 127.8509140014648 28.58757781982422 128.4461975097656 28.55625915527344 129.0317993164062 28.52765846252441 Z M 144.6758728027344 68.02271270751953 C 144.2537841796875 68.40241241455078 143.8232574462891 68.78594970703125 143.3857421875 69.17333984375 C 142.9475250244141 69.56127166748047 142.5018157958984 69.9527587890625 142.0495758056641 70.34728240966797 C 141.5965881347656 70.74231719970703 141.1370391845703 71.14041137695312 140.6716918945312 71.54077911376953 C 140.2054901123047 71.94164276123047 139.7334442138672 72.34461975097656 139.2565002441406 72.74943542480469 L 134.7662506103516 72.90803527832031 C 135.2366180419922 72.51188659667969 135.7021942138672 72.11714935302734 136.1619567871094 71.72488403320312 C 136.6208648681641 71.33309173583984 137.0740966796875 70.94353485107422 137.5209655761719 70.55689239501953 C 137.9670257568359 70.17084503173828 138.4065704345703 69.78762817382812 138.8389282226562 69.40802764892578 C 139.2706451416016 69.0291748046875 139.6952362060547 68.65370941162109 140.1117248535156 68.28248596191406 L 144.6758728027344 68.02271270751953 Z M 114.0729446411133 29.66508674621582 L 111.8210830688477 31.44629287719727 C 111.2232513427734 31.5042552947998 110.616813659668 31.56465148925781 110.0030059814453 31.62704467773438 C 109.3897552490234 31.68935775756836 108.769172668457 31.7539176940918 108.1421966552734 31.82036781311035 C 107.5159378051758 31.88687133789062 106.8832244873047 31.95524787902832 106.2453842163086 32.02545547485352 C 105.6083068847656 32.09572219848633 104.9658813476562 32.16777801513672 104.319450378418 32.24159622192383 L 106.4312896728516 30.48538780212402 C 107.0893020629883 30.40941619873047 107.7432098388672 30.33515739440918 108.3919906616211 30.26271438598633 C 109.0415115356445 30.1904239654541 109.6857376098633 30.11992073059082 110.3237838745117 30.05144882202148 C 110.9624633789062 29.98301315307617 111.594856262207 29.91636085510254 112.2196960449219 29.85190200805664 C 112.8452835083008 29.78738403320312 113.4634094238281 29.72507858276367 114.0729446411133 29.66508674621582 Z M 133.4257965087891 77.57670593261719 C 132.9351043701172 77.97373199462891 132.4368591308594 78.374755859375 131.9319915771484 78.77921295166016 C 131.4263458251953 79.18402862548828 130.9140625 79.59243011474609 130.3959503173828 80.00315856933594 C 129.8771514892578 80.41459655761719 129.3524017333984 80.82851409912109 128.8227691650391 81.24441528320312 C 128.292236328125 81.66072082519531 127.7568740844727 82.07901000976562 127.2175674438477 82.49858093261719 L 122.8742904663086 82.47123718261719 C 123.4072036743164 82.05946350097656 123.9361724853516 81.64875030517578 124.4604187011719 81.24009704589844 C 124.9836273193359 80.83181762695312 125.5022048950195 80.42548370361328 126.0150909423828 80.02178192138672 C 126.5271072387695 79.61866760253906 127.0334091186523 79.21803283691406 127.5330963134766 78.82062530517578 C 128.0319519042969 78.42353820800781 128.5243682861328 78.02969360351562 129.0093688964844 77.64002990722656 L 133.4257965087891 77.57670593261719 Z M 98.74074554443359 31.42687034606934 L 96.73892211914062 33.16028213500977 C 96.13002777099609 33.23794174194336 95.51277160644531 33.31764602661133 94.88819122314453 33.39915084838867 C 94.26432037353516 33.48070526123047 93.63311767578125 33.56406021118164 92.9957275390625 33.64890670776367 C 92.35897827148438 33.73367691040039 91.71615600585938 33.82018280029297 91.06834411621094 33.90822601318359 C 90.421142578125 33.99617767333984 89.76901245117188 34.08555221557617 89.11289215087891 34.17634582519531 L 91.03030395507812 32.46270370483398 C 91.69321441650391 32.3702507019043 92.35230255126953 32.27912902832031 93.00650024414062 32.18952560424805 C 93.66129302978516 32.09983444213867 94.31117248535156 32.01168060302734 94.95494842529297 31.92523574829102 C 95.59932708740234 31.83870315551758 96.23757934570312 31.75378227233887 96.86866760253906 31.67068862915039 C 97.5003662109375 31.58750915527344 98.12477111816406 31.50624084472656 98.74074554443359 31.42687034606934 Z M 120.658073425293 87.51000213623047 C 120.1083679199219 87.92275238037109 119.5517730712891 88.3394775390625 118.9889450073242 88.75901031494141 C 118.4253463745117 89.17937469482422 117.8555145263672 89.60247039794922 117.2806777954102 90.02804565429688 C 116.7048034667969 90.45417785644531 116.1238861083984 90.88251495361328 115.538703918457 91.31233215332031 C 114.9526519775391 91.74269104003906 114.3623657226562 92.17478179931641 113.7690582275391 92.60771942138672 L 109.5718688964844 92.40917205810547 C 110.1588363647461 91.98352813720703 110.7427520751953 91.55849456787109 111.3225860595703 91.13507843017578 C 111.9014587402344 90.71238708496094 112.4762268066406 90.29100036621094 113.0459518432617 89.87200164794922 C 113.6148071289062 89.45364379882812 114.178581237793 89.03734588623047 114.7362442016602 88.62408447265625 C 115.2931213378906 88.21157836914062 115.8439483642578 87.80177307128906 116.3878021240234 87.39565277099609 L 120.658073425293 87.51000213623047 Z M 83.32341766357422 33.57095718383789 L 81.46794891357422 35.26769256591797 C 80.85466766357422 35.35763931274414 80.23809814453125 35.44856643676758 79.61613464355469 35.54085922241211 C 78.99475860595703 35.63309097290039 78.36799621582031 35.7266845703125 77.73356628417969 35.82201766967773 C 77.09969329833984 35.91713714599609 76.45828247070312 36.0140380859375 75.80704498291016 36.1129150390625 C 75.1563720703125 36.21159744262695 74.49593353271484 36.31228256225586 73.82350921630859 36.41522979736328 L 75.6373291015625 34.73245620727539 C 76.31313323974609 34.62825775146484 76.97698211669922 34.52632141113281 77.63104248046875 34.42658615112305 C 78.28570556640625 34.3265495300293 78.93061065673828 34.22862243652344 79.56786346435547 34.1323127746582 C 80.20574188232422 34.03593826293945 80.83604431152344 33.9411735534668 81.46090698242188 33.84778213500977 C 82.08639526367188 33.75431060791016 82.70645141601562 33.66207885742188 83.32341766357422 33.57095718383789 Z M 106.5680465698242 97.78909301757812 C 105.9657669067383 98.2166748046875 105.356803894043 98.64794921875 104.7421722412109 99.08180236816406 C 104.1266555786133 99.51651000976562 103.50537109375 99.95367431640625 102.8796005249023 100.3930206298828 C 102.2527923583984 100.8328399658203 101.6214447021484 101.2747802734375 100.9863891601562 101.717658996582 C 100.350471496582 102.1613922119141 99.71102905273438 102.6062545776367 99.06915283203125 103.0517654418945 L 95.01927947998047 102.6911087036133 C 95.65479278564453 102.2526626586914 96.28787231445312 101.814453125 96.91739654541016 101.3773422241211 C 97.54610443115234 100.9411392211914 98.17124176025391 100.5061111450195 98.79193878173828 100.0729675292969 C 99.41154479980469 99.64035797119141 100.0265884399414 99.20970916748047 100.6361541748047 98.78160095214844 C 101.2447738647461 98.35440063476562 101.8477401733398 97.92975616455078 102.4441146850586 97.50844573974609 L 106.5680465698242 97.78909301757812 Z M 67.98893737792969 35.93019104003906 L 66.19785308837891 37.60211944580078 C 65.62358093261719 37.69279479980469 65.03730010986328 37.78556060791016 64.43685913085938 37.88059997558594 C 63.83695602416992 37.97591018676758 63.22293090820312 38.0736083984375 62.59253692626953 38.17403793334961 C 61.96268081665039 38.27436447143555 61.31666564941406 38.37757110595703 60.65222930908203 38.48410034179688 C 59.98833847045898 38.59030532836914 59.3061408996582 38.69961166381836 58.60342407226562 38.81246566772461 L 60.39015579223633 37.14841842651367 C 61.0930061340332 37.03480529785156 61.77543258666992 36.92476272583008 62.43953323364258 36.81781005859375 C 63.10423278808594 36.71077728271484 63.7505989074707 36.60696411132812 64.38079071044922 36.50600433349609 C 65.01148986816406 36.40483093261719 65.62601470947266 36.30665588378906 66.22635650634766 36.21071624755859 C 66.82724761962891 36.11483764648438 67.41404724121094 36.02145767211914 67.98893737792969 35.93019104003906 Z M 91.28383636474609 108.3947525024414 C 90.63282012939453 108.8366165161133 89.97553253173828 109.2819290161133 89.31295013427734 109.7298278808594 C 88.64936828613281 110.1780776977539 87.98054504394531 110.6289138793945 87.30769348144531 111.0814743041992 C 86.63383483886719 111.5346374511719 85.955810546875 111.9894104003906 85.27484893798828 112.4451675415039 C 84.59291839599609 112.9014358520508 83.90814971923828 113.3588180541992 83.22147369384766 113.8161392211914 L 79.32298278808594 113.2979583740234 C 80.00296783447266 112.8472595214844 80.68129730224609 112.3965911865234 81.35665893554688 111.9466094970703 C 82.03115081787109 111.4976959228516 82.70277404785156 111.049446105957 83.37022399902344 110.6027297973633 C 84.03669738769531 110.1566543579102 84.69927978515625 109.7124938964844 85.35665130615234 109.2707290649414 C 86.01296997070312 108.8294677734375 86.66415405273438 108.3906021118164 87.30899810791016 107.9548873901367 L 91.28383636474609 108.3947525024414 Z M 52.86094665527344 38.36997985839844 L 51.05946731567383 40.0296516418457 L 51.0355224609375 40.03346633911133 C 50.38759994506836 40.13827514648438 49.74922943115234 40.24150085449219 49.11801528930664 40.34341812133789 C 48.48740768432617 40.44537734985352 47.86393356323242 40.5460090637207 47.24542236328125 40.64596939086914 C 46.62733840942383 40.74568557739258 46.01415634155273 40.8446044921875 45.40350723266602 40.94292831420898 C 44.79340362548828 41.04116821289062 44.18582153320312 41.13883209228516 43.57854461669922 41.23627471923828 L 45.41606521606445 39.57780838012695 C 46.01995086669922 39.48018264770508 46.62426376342773 39.3823356628418 47.23131942749023 39.28415679931641 C 47.83885192871094 39.18589782714844 48.44902038574219 39.08693313598633 49.06416320800781 38.98703384399414 C 49.67986297607422 38.88727951049805 50.30046463012695 38.7863883972168 50.92823028564453 38.68436813354492 C 51.55654907226562 38.58217620849609 52.19207000732422 38.47878265380859 52.83712387084961 38.37394332885742 L 52.86094665527344 38.36997985839844 Z M 74.89064788818359 119.3144149780273 C 74.19350433349609 119.7705764770508 73.49041748046875 120.2295379638672 72.78264617919922 120.690544128418 C 72.07386016845703 121.1524276733398 71.36026000976562 121.6160736083984 70.64325714111328 122.081184387207 C 69.92530059814453 122.5469665527344 69.20370483398438 123.0140075683594 68.47988891601562 123.4815063476562 C 67.75511932373047 123.9498138427734 67.02800750732422 124.4182205200195 66.30000305175781 124.8866500854492 L 62.56029510498047 124.2116470336914 C 63.28145599365234 123.7499313354492 64.00164031982422 123.2878646850586 64.7196044921875 122.8263168334961 C 65.43659210205078 122.3654098510742 66.15132141113281 121.9048004150391 66.86260223388672 121.4457168579102 C 67.57291412353516 120.9871520996094 68.27978515625 120.5299453735352 68.98195648193359 120.0746383666992 C 69.68313598632812 119.6200256347656 70.37968444824219 119.1675796508789 71.07039642333984 118.7180633544922 L 74.89064788818359 119.3144149780273 Z M 57.44232177734375 130.5388488769531 C 56.69839859008789 131.0096435546875 55.94930648803711 131.4831085205078 55.19635772705078 131.9580535888672 C 54.4423713684082 132.43359375 53.68443298339844 132.910400390625 52.92402648925781 133.3882293701172 C 52.16265106201172 133.8670501708984 51.3985481262207 134.3459014892578 50.63325881958008 134.8246765136719 C 49.866943359375 135.304443359375 49.09938049316406 135.783935546875 48.33195495605469 136.2623596191406 L 44.76380157470703 135.4278259277344 C 45.52371597290039 134.9561309814453 46.28373718261719 134.4832611083984 47.04262924194336 134.0105133056641 C 47.80051803588867 133.5381927490234 48.55717849731445 133.0657653808594 49.31136703491211 132.5942230224609 C 50.06444931030273 132.1231689453125 50.81504440307617 131.6527557373047 51.56183624267578 131.1838989257812 C 52.30756759643555 130.7155151367188 53.04951477050781 130.2488403320312 53.78644943237305 129.7846374511719 L 57.44232177734375 130.5388488769531 Z M 38.08549499511719 40.74946975708008 L 36.18643188476562 42.41078186035156 C 35.50846481323242 42.51703643798828 34.85113525390625 42.61958312988281 34.21224975585938 42.7186393737793 C 33.57395172119141 42.81762313842773 32.95402526855469 42.91316223144531 32.35028076171875 43.00582885742188 C 31.74709510803223 43.09822082519531 31.1600513458252 43.18764114379883 30.58703804016113 43.27432250976562 C 30.01449966430664 43.36084365844727 29.45589828491211 43.44467163085938 28.90917205810547 43.52624130249023 L 30.90326881408691 41.85738754272461 C 31.44230461120605 41.77632904052734 31.99320220947266 41.69306945800781 32.55797958374023 41.60709762573242 C 33.12327194213867 41.52107238769531 33.70249176025391 41.43232727050781 34.29784393310547 41.34050750732422 C 34.89365005493164 41.24860763549805 35.50562286376953 41.15374374389648 36.13586044311523 41.0552978515625 C 36.76668930053711 40.95690155029297 37.41586303710938 40.85494613647461 38.08549499511719 40.74946975708008 Z M 38.96580123901367 142.0579833984375 C 38.16987991333008 142.5469512939453 37.37092590332031 143.0367279052734 36.57040405273438 143.5265350341797 C 35.76874542236328 144.0171661376953 34.96547698974609 144.5074462890625 34.16204071044922 144.9969024658203 C 33.35747528076172 145.4871063232422 32.55278396606445 145.9767913818359 31.74937057495117 146.4647064208984 C 30.94485092163086 146.9532165527344 30.14154243469238 147.4400024414062 29.34089469909668 147.9242095947266 L 25.96652030944824 146.9208984375 C 26.75856971740723 146.4439086914062 27.55326080322266 145.9643249511719 28.34928894042969 145.4829711914062 C 29.14427375793457 145.0024108886719 29.94050407409668 144.5200805664062 30.73662567138672 144.0369873046875 C 31.53160095214844 143.5543975830078 32.32649993896484 143.0711212158203 33.11981201171875 142.5878601074219 C 33.91208648681641 142.1052703857422 34.70275115966797 141.6224670410156 35.49052429199219 141.1406097412109 L 38.96580123901367 142.0579833984375 Z M 23.92686080932617 42.86063385009766 L 21.78925323486328 44.54270935058594 C 21.14251518249512 44.63005065917969 20.51680946350098 44.71303939819336 19.91005516052246 44.79190826416016 C 19.30390167236328 44.87048721313477 18.71663093566895 44.94503784179688 18.14624404907227 45.01560592651367 C 17.57638359069824 45.08599853515625 17.02335357666016 45.15253448486328 16.48509407043457 45.21548080444336 C 15.9473237991333 45.27845001220703 15.42427539825439 45.33759689331055 14.91393852233887 45.39348602294922 L 17.2728099822998 43.69231033325195 C 17.76527404785156 43.63777542114258 18.27040863037109 43.57999801635742 18.79017066955566 43.5185432434082 C 19.31040000915527 43.45701599121094 19.84528923034668 43.39186859130859 20.39681816101074 43.32301330566406 C 20.9488697052002 43.25397491455078 21.51758766174316 43.18118667602539 22.10493087768555 43.10408401489258 C 22.69286727905273 43.02711486816406 23.29952621459961 42.94617080688477 23.92686080932617 42.86063385009766 Z M 11.16548633575439 44.2301025390625 L 8.445559501647949 45.95219802856445 C 7.845989227294922 45.98513412475586 7.282106399536133 46.00896072387695 6.752277851104736 46.02372741699219 C 6.223126411437988 46.03857421875 5.727859973907471 46.04400634765625 5.264754772186279 46.04075622558594 C 4.802270412445068 46.03725051879883 4.371889591217041 46.0247802734375 3.971881628036499 46.00336074829102 C 3.572400093078613 45.98200988769531 3.203209638595581 45.95165252685547 2.862655162811279 45.9122314453125 L 6.199594974517822 44.21347808837891 C 6.492606163024902 44.24615478515625 6.816442966461182 44.27098846435547 7.170461654663086 44.28818511962891 C 7.524899005889893 44.30519485473633 7.90962028503418 44.31460571289062 8.323914527893066 44.31610870361328 C 8.738685607910156 44.31771469116211 9.183157920837402 44.3111686706543 9.656636238098145 44.29686737060547 C 10.13069820404053 44.28245162963867 10.63386917114258 44.26034164428711 11.16548633575439 44.2301025390625 Z" stroke="none" fill="#faad5d"/>
    </g>
    <path id="Pfad_21" data-name="Pfad 21" d="M4675.194,169.484V110.943h520.646v58.541" transform="translate(-3975.518 -97.751)" fill="none" stroke="#fec98c" stroke-linecap="square" stroke-linejoin="round" stroke-width="4" stroke-dasharray="7"/>
    <path id="Pfad_22" data-name="Pfad 22" d="M5195.841,159.175V110.943" transform="translate(-4235.841 -87.443)" fill="none" stroke="#fec98c" stroke-linecap="square" stroke-linejoin="round" stroke-width="4" stroke-dasharray="7"/>
    <path id="Pfad_23" data-name="Pfad 23" d="M4675.194,169.484V110.943h520.646v58.541" transform="translate(-3975.518 323.145)" fill="none" stroke="#fec98c" stroke-linecap="square" stroke-linejoin="round" stroke-width="4" stroke-dasharray="7"/>
    <path id="Pfad_24" data-name="Pfad 24" d="M5195.841,110.943v52.463" transform="translate(-4235.841 266.604)" fill="none" stroke="#fec98c" stroke-linecap="square" stroke-linejoin="round" stroke-width="4" stroke-dasharray="7"/>
  </g>
</svg>
