<svg xmlns="http://www.w3.org/2000/svg" xmlns:xlink="http://www.w3.org/1999/xlink" width="1920" height="949" viewBox="0 0 1920 949">
  <defs>
    <clipPath id="clip-Part2">
      <rect width="1920" height="949"/>
    </clipPath>
  </defs>
  <g id="Part2" clip-path="url(#clip-Part2)">
    <rect width="1920" height="949" fill="#fff"/>
    <rect id="Rechteck_64" data-name="Rechteck 64" width="16" height="25" transform="translate(-1771 676)" fill="#fff"/>
    <g id="Pfad_6" data-name="Pfad 6" transform="translate(-255.896 640.609)" fill="none" stroke-dasharray="10">
      <path d="M129.763,382.425s7.506-9.14,18.3-24.055a654.184,654.184,0,0,0,38.067-58.819c13.2-23.213,25.5-48.919,32.659-73.783,7.187-24.949,9.218-49.1,1.793-69.093C213.113,136.568,197,122.867,176.7,113.058c-20.424-9.871-45.085-15.8-69.405-20.347-24.47-4.57-48.576-7.729-67.622-12.064C20.536,76.291,6.539,70.753,2.45,61.421" stroke="none"/>
      <path d="M 221.0604248046875 151.3445892333984 L 216.5816192626953 153.4602813720703 C 216.2550811767578 152.7400054931641 215.9137725830078 152.0246429443359 215.5584869384766 151.3141326904297 C 215.2032318115234 150.6039428710938 214.8337249755859 149.8990783691406 214.4506988525391 149.2000579833984 C 214.0679626464844 148.5018310546875 213.6717681884766 147.8103942871094 213.2626647949219 147.1261444091797 C 212.853515625 146.4422760009766 212.4316101074219 145.7661285400391 211.9977722167969 145.0991363525391 L 216.1246032714844 142.3266448974609 C 216.5918731689453 143.0456237792969 217.0461730957031 143.7752532958984 217.486572265625 144.5125579833984 C 217.9271087646484 145.2506561279297 218.3538208007812 145.9964752197266 218.7658843994141 146.7495269775391 C 219.1781768798828 147.5028686523438 219.5761260986328 148.2639770507812 219.9587249755859 149.0298919677734 C 220.3413696289062 149.7961120605469 220.7088165283203 150.5681457519531 221.0604248046875 151.3445892333984 Z M 224.5885620117188 160.9928283691406 C 224.8159790039062 161.7900695800781 225.0315551757812 162.5993499755859 225.2349853515625 163.417724609375 C 225.4382781982422 164.2359466552734 225.6294555664062 165.0637512207031 225.8082275390625 165.8992462158203 C 225.9867095947266 166.7345733642578 226.1527862548828 167.5780639648438 226.3062591552734 168.4278259277344 C 226.4595794677734 169.2774200439453 226.6000518798828 170.1332550048828 226.7273559570312 170.9939422607422 L 221.8722991943359 171.7880401611328 C 221.7525329589844 170.9803466796875 221.6203002929688 170.1779937744141 221.4761810302734 169.3809356689453 C 221.3320159912109 168.5847015380859 221.1759796142578 167.7947387695312 221.0082092285156 167.0119781494141 C 220.8404083251953 166.2295379638672 220.6611633300781 165.454833984375 220.4705200195312 164.6892242431641 C 220.2797393798828 163.9235076904297 220.0776824951172 163.1673889160156 219.8645629882812 162.4213562011719 L 224.5885620117188 160.9928283691406 Z M 227.64013671875 181.1285247802734 C 227.6694488525391 181.9447326660156 227.6888732910156 182.7695617675781 227.6984100341797 183.6015625 C 227.7080535888672 184.4343872070312 227.7079925537109 185.2744140625 227.6979522705078 186.1206512451172 C 227.6881408691406 186.9667510986328 227.668212890625 187.8191375732422 227.6387939453125 188.6758117675781 C 227.6089630126953 189.5323791503906 227.5695495605469 190.3927764892578 227.5205993652344 191.2574920654297 L 222.6300048828125 191.0461883544922 C 222.6765289306641 190.219482421875 222.7138061523438 189.3962097167969 222.7417449951172 188.5777282714844 C 222.7696838378906 187.7591247558594 222.7882843017578 186.9453277587891 222.7975311279297 186.1377716064453 C 222.8069152832031 185.3305969238281 222.8067016601562 184.5281982421875 222.7971801757812 183.7344360351562 C 222.7874298095703 182.9395904541016 222.7685546875 182.1529235839844 222.740234375 181.3748779296875 L 227.64013671875 181.1285247802734 Z M 209.9202423095703 134.1447143554688 L 206.2152252197266 137.4864196777344 C 205.7012634277344 136.9009552001953 205.1725616455078 136.3184509277344 204.6307525634766 135.7408294677734 C 204.0887145996094 135.16357421875 203.5334014892578 134.5911560058594 202.9655609130859 134.0236206054688 C 202.3973388671875 133.4564361572266 201.8171844482422 132.8950653076172 201.2251434326172 132.3404846191406 C 200.6330871582031 131.7852630615234 200.0295104980469 131.2368316650391 199.41552734375 130.6961669921875 L 202.6780853271484 126.9013519287109 C 203.331298828125 127.477180480957 203.9734344482422 128.0617065429688 204.6036682128906 128.6529846191406 C 205.2337188720703 129.2450866699219 205.851806640625 129.8434753417969 206.4566955566406 130.4486389160156 C 207.0615539550781 131.0536499023438 207.6532287597656 131.6649322509766 208.2308197021484 132.2810974121094 C 208.8085327148438 132.8976135253906 209.3719940185547 133.5194396972656 209.9202423095703 134.1447143554688 Z M 226.5493927001953 201.2889404296875 C 226.4412536621094 202.0925598144531 226.3249664306641 202.9033660888672 226.2007598876953 203.7199249267578 C 226.0766448974609 204.5363159179688 225.9445495605469 205.3589630126953 225.8049163818359 206.1864013671875 C 225.6651153564453 207.0137786865234 225.5178833007812 207.8449554443359 225.3633728027344 208.6804351806641 C 225.2087097167969 209.5153961181641 225.0468902587891 210.3536834716797 224.8778381347656 211.1934204101562 L 220.0839080810547 210.2905426025391 C 220.24755859375 209.4763793945312 220.4041595458984 208.6637268066406 220.5535583496094 207.8544006347656 C 220.7029876708984 207.0459289550781 220.8452911376953 206.2398834228516 220.9803771972656 205.4390869140625 C 221.1153259277344 204.6377716064453 221.2430114746094 203.8416595458984 221.3628692626953 203.0508880615234 C 221.4826965332031 202.2604522705078 221.5948638916016 201.4757843017578 221.6994323730469 200.6992645263672 L 226.5493927001953 201.2889404296875 Z M 194.6471405029297 120.5889511108398 L 191.8072814941406 124.7265472412109 C 191.1674041748047 124.2773513793945 190.5144500732422 123.8306655883789 189.849853515625 123.3878860473633 C 189.1852111816406 122.9449920654297 188.5088348388672 122.5060348510742 187.8217926025391 122.0704803466797 C 187.1346130371094 121.6353225708008 186.4369506835938 121.2045364379883 185.7300567626953 120.7791137695312 C 185.0229644775391 120.3535614013672 184.3065338134766 119.9324111938477 183.5817413330078 119.5180206298828 L 186.0411834716797 115.1302719116211 C 186.7984466552734 115.564208984375 187.5473937988281 116.0049362182617 188.2868041992188 116.4509887695312 C 189.0261383056641 116.8969345092773 189.7557373046875 117.3482131958008 190.474609375 117.8043518066406 C 191.1933288574219 118.259895324707 191.9013366699219 118.7202987670898 192.5972290039062 119.1850967407227 C 193.2929382324219 119.6492919921875 193.9766693115234 120.1178817749023 194.6471405029297 120.5889511108398 Z M 222.6271362304688 220.9501800537109 C 222.4247589111328 221.7327270507812 222.2154846191406 222.5214080810547 221.9996948242188 223.3149261474609 C 221.7839050292969 224.1083679199219 221.5617828369141 224.9070434570312 221.3336334228516 225.7096099853516 C 221.1053314208984 226.5115356445312 220.8710021972656 227.3163909912109 220.6310882568359 228.1240997314453 C 220.3912048339844 228.9322204589844 220.1456756591797 229.7423095703125 219.8949432373047 230.5528717041016 L 215.2297515869141 229.1724395751953 C 215.4747161865234 228.3788757324219 215.7144622802734 227.5872344970703 215.9486236572266 226.7975158691406 C 216.1829986572266 226.0077819824219 216.4118804931641 225.2204284667969 216.6344299316406 224.4364166259766 C 216.8572845458984 223.6528472900391 217.0740356445312 222.8721160888672 217.2846984863281 222.0976104736328 C 217.4953765869141 221.3225708007812 217.6994934082031 220.5518341064453 217.89697265625 219.7877502441406 L 222.6271362304688 220.9501800537109 Z M 177.0255279541016 110.4178314208984 L 174.8971099853516 114.9871368408203 C 174.1840972900391 114.6480255126953 173.4598541259766 114.3104476928711 172.7252502441406 113.9758148193359 C 171.9903564453125 113.6411056518555 171.2455291748047 113.3083877563477 170.4916534423828 112.9790954589844 C 169.7376098632812 112.6497268676758 168.9747924804688 112.3237915039062 168.2042541503906 112.0007858276367 C 167.4335632324219 111.6782073974609 166.6552581787109 111.3585357666016 165.8706817626953 111.0427551269531 L 167.7162933349609 106.3421478271484 C 168.5246124267578 106.6675338745117 169.3266143798828 106.9967727661133 170.1211395263672 107.3309173583984 C 170.9154815673828 107.6644821166992 171.7020874023438 108.0014343261719 172.4798736572266 108.3423080444336 C 173.2573852539062 108.6826171875 174.0258636474609 109.0263519287109 174.7838745117188 109.37255859375 C 175.5418243408203 109.7181854248047 176.2895660400391 110.067253112793 177.0255279541016 110.4178314208984 Z M 216.7557373046875 240.0064697265625 C 216.4863739013672 240.7674865722656 216.2107696533203 241.5332489013672 215.929931640625 242.3043060302734 C 215.6491394042969 243.0748138427734 215.3628540039062 243.8501281738281 215.071533203125 244.6277770996094 C 214.7803344726562 245.4049530029297 214.4842071533203 246.1854553222656 214.1837310791016 246.9678802490234 C 213.883056640625 247.7497863769531 213.5780029296875 248.5326538085938 213.2689971923828 249.3160705566406 L 208.7299499511719 247.5925750732422 C 209.0334014892578 246.8219146728516 209.3330535888672 246.0517272949219 209.6285400390625 245.2830657958984 C 209.9237670898438 244.5142822265625 210.2146301269531 243.7465057373047 210.5006103515625 242.9820556640625 C 210.7867584228516 242.2175750732422 211.0679168701172 241.4555053710938 211.3435821533203 240.6981964111328 C 211.6194763183594 239.9408111572266 211.8900756835938 239.1878051757812 212.1544952392578 238.4404602050781 L 216.7557373046875 240.0064697265625 Z M 158.1932067871094 102.8007507324219 L 156.5870361328125 107.5975189208984 C 155.8330383300781 107.3388977050781 155.0683135986328 107.0817947387695 154.2943420410156 106.8252258300781 C 153.5200805664062 106.569091796875 152.7366638183594 106.3149566650391 151.9451599121094 106.0627975463867 C 151.1536254882812 105.8100967407227 150.3540191650391 105.5593872070312 149.5477447509766 105.3111114501953 C 148.7413177490234 105.0632858276367 147.9283752441406 104.8169326782227 147.1103515625 104.5744705200195 L 148.5154724121094 99.70575714111328 C 149.3504028320312 99.95402526855469 150.1800994873047 100.205207824707 151.0032653808594 100.4588394165039 C 151.8264007568359 100.7129211425781 152.6427459716797 100.9694366455078 153.4513549804688 101.2284088134766 C 154.2596740722656 101.4868469238281 155.0597839355469 101.7472610473633 155.8506317138672 102.0096740722656 C 156.6412811279297 102.2715301513672 157.4226684570312 102.5353775024414 158.1932067871094 102.8007507324219 Z M 209.4827575683594 258.4909057617188 C 209.1634063720703 259.23193359375 208.8387756347656 259.9777221679688 208.5095062255859 260.7283020019531 C 208.1802673339844 261.4778747558594 207.8464965820312 262.2317199707031 207.5083618164062 262.987548828125 C 207.1702575683594 263.7433166503906 206.8279724121094 264.5014343261719 206.4824371337891 265.2601013183594 C 206.1364440917969 266.0187377929688 205.7871551513672 266.7783203125 205.4351043701172 267.5379638671875 L 201.0105895996094 265.5584411621094 C 201.3580474853516 264.8091430664062 201.7024993896484 264.0589904785156 202.0436248779297 263.3106994628906 C 202.3845672607422 262.5614624023438 202.7220764160156 261.8131713867188 203.0556488037109 261.0682067871094 C 203.3890533447266 260.3222961425781 203.7186737060547 259.5792541503906 204.0432434082031 258.8390808105469 C 204.3677520751953 258.0988464355469 204.6877288818359 257.3619689941406 205.0025634765625 256.630859375 L 209.4827575683594 258.4909057617188 Z M 138.7212219238281 96.98115539550781 L 137.4841613769531 101.9032592773438 C 136.7080993652344 101.7021484375 135.9214324951172 101.5011138916016 135.1252288818359 101.3006286621094 C 134.3290863037109 101.1005783081055 133.5232849121094 100.9010848999023 132.7093963623047 100.7021102905273 C 131.8953552246094 100.5031204223633 131.0735473632812 100.3051147460938 130.2449798583984 100.1096038818359 C 129.4160919189453 99.91304779052734 128.5808258056641 99.71849822998047 127.740119934082 99.52493286132812 L 128.8379821777344 94.56134033203125 C 129.6904296875 94.75785064697266 130.5372924804688 94.95633697509766 131.3776397705078 95.15581512451172 C 132.2180328369141 95.35573577880859 133.0516510009766 95.55666351318359 133.8770599365234 95.75861358642578 C 134.7025146484375 95.96050262451172 135.5199737548828 96.16389465332031 136.3277893066406 96.36783599853516 C 137.1356658935547 96.57222747802734 137.9338836669922 96.77616882324219 138.7212219238281 96.98115539550781 Z M 201.1569671630859 276.464599609375 C 200.7988586425781 277.1880798339844 200.4362182617188 277.9163513183594 200.0693969726562 278.6479797363281 C 199.7026214599609 279.3795776367188 199.33154296875 280.113525390625 198.9571838378906 280.8504333496094 C 198.5827178955078 281.5867919921875 198.2046966552734 282.3240966796875 197.8239898681641 283.0628662109375 C 197.4430847167969 283.8006591796875 197.0593566894531 284.5399169921875 196.6736602783203 285.2782287597656 L 192.3514709472656 283.1005249023438 C 192.7331237792969 282.3701477050781 193.1124725341797 281.638916015625 193.4890747070312 280.9076232910156 C 193.8656463623047 280.1773376464844 194.2393798828125 279.447509765625 194.6098022460938 278.7186889648438 C 194.9801177978516 277.9902648925781 195.3470001220703 277.2637939453125 195.7097320556641 276.5406799316406 C 196.0726013183594 275.8170166015625 196.4312896728516 275.0967407226562 196.7850036621094 274.3803100585938 L 201.1569671630859 276.464599609375 Z M 118.8880081176758 92.39006805419922 L 117.9032211303711 97.38513946533203 C 117.1106185913086 97.22138214111328 116.3134689331055 97.05862426757812 115.5089492797852 96.89640808105469 C 114.7042617797852 96.73464202880859 113.8924179077148 96.57290649414062 113.0702972412109 96.4107666015625 C 112.2478713989258 96.24907684326172 111.4153594970703 96.08744812011719 110.5697174072266 95.92494201660156 C 109.7236633300781 95.76240539550781 108.8645935058594 95.59899139404297 107.9893035888672 95.43421173095703 L 108.8851776123047 90.41529083251953 C 109.7679061889648 90.58158111572266 110.6345367431641 90.74749755859375 111.4880294799805 90.91203308105469 C 112.3411102294922 91.07654571533203 113.18115234375 91.24064636230469 114.0110168457031 91.40483093261719 C 114.840690612793 91.56896209716797 115.6599197387695 91.73216247558594 116.4717864990234 91.89640808105469 C 117.2837142944336 92.06060791015625 118.0880279541016 92.22484588623047 118.8880081176758 92.39006805419922 Z M 192.0063323974609 293.9857177734375 C 191.6172943115234 294.6936950683594 191.2236785888672 295.4064025878906 190.8265228271484 296.1210632324219 C 190.4293823242188 296.8361511230469 190.0284729003906 297.55322265625 189.6246948242188 298.2726440429688 C 189.2209625244141 298.9916076660156 188.8141326904297 299.7114562988281 188.4048919677734 300.4319152832031 C 187.9958953857422 301.1517944335938 187.5846557617188 301.8726806640625 187.1717224121094 302.5917053222656 L 182.9406585693359 300.2548828125 C 183.3498840332031 299.5419616699219 183.7575073242188 298.82763671875 184.1626586914062 298.1138305664062 C 184.5680694580078 297.3995056152344 184.9712677001953 296.6861877441406 185.3713989257812 295.9733581542969 C 185.7714385986328 295.260498046875 186.1684875488281 294.5490417480469 186.5619049072266 293.840087890625 C 186.9555511474609 293.1319885253906 187.3454132080078 292.4258422851562 187.7308502197266 291.7240295410156 L 192.0063323974609 293.9857177734375 Z M 98.84326934814453 88.58902740478516 L 98.01329803466797 93.62612915039062 C 97.25812530517578 93.49410247802734 96.48663330078125 93.35974884033203 95.69598388671875 93.22309112548828 C 94.90518951416016 93.08592224121094 94.09535980224609 92.94744873046875 93.2633056640625 92.80522918701172 C 92.43106079101562 92.66297149658203 91.57681274414062 92.51795196533203 90.69758605957031 92.37018585205078 C 89.81793975830078 92.22141265869141 88.91329956054688 92.06940460205078 87.98058319091797 91.9132080078125 L 88.76813507080078 86.86264801025391 C 89.70445251464844 87.01995849609375 90.61267852783203 87.17254638671875 91.49567413330078 87.32239532470703 C 92.37871551513672 87.47171020507812 93.23653411865234 87.61827087402344 94.07221984863281 87.76107025146484 C 94.90785980224609 87.90434265136719 95.72123718261719 88.04483032226562 96.51547241210938 88.18202209472656 C 97.30941009521484 88.31967926025391 98.08443450927734 88.45552062988281 98.84326934814453 88.58902740478516 Z M 182.1842346191406 311.1033935546875 C 181.7689666748047 311.7982788085938 181.349609375 312.4964904785156 180.9270477294922 313.1975708007812 C 180.5045318603516 313.897216796875 180.0784454345703 314.5997314453125 179.6502532958984 315.3037414550781 C 179.2218627929688 316.0068054199219 178.7909545898438 316.7112121582031 178.3582153320312 317.414794921875 C 177.9255981445312 318.1187744140625 177.4912719726562 318.8228454589844 177.0557708740234 319.5249633789062 L 172.9070892333984 317.0553588867188 C 173.3392791748047 316.35888671875 173.7701873779297 315.6599731445312 174.1995086669922 314.9611511230469 C 174.6287994384766 314.2627563476562 175.0563812255859 313.5639343261719 175.4812316894531 312.8656005859375 C 175.9062042236328 312.1672058105469 176.3288726806641 311.4703674316406 176.748291015625 310.7758178710938 C 177.1673889160156 310.0798950195312 177.5835113525391 309.3872680664062 177.9953765869141 308.6976318359375 L 182.1842346191406 311.1033935546875 Z M 78.67508697509766 85.18910217285156 L 77.90471649169922 90.24893951416016 L 77.87247467041016 90.24383544921875 C 77.00145721435547 90.10089111328125 76.14218902587891 89.95977020263672 75.291748046875 89.81952667236328 C 74.44113159179688 89.67975616455078 73.59919738769531 89.54084777832031 72.76312255859375 89.40382385253906 C 71.9266357421875 89.26529693603516 71.09603118896484 89.12816619873047 70.26747131347656 88.99049377441406 C 69.43886566162109 88.85279083251953 68.61292266845703 88.71552276611328 67.78595733642578 88.57675170898438 L 68.56880950927734 83.51177978515625 C 69.39380645751953 83.650634765625 70.21827697753906 83.78799438476562 71.045654296875 83.92627716064453 C 71.87299346923828 84.06453704833984 72.70263671875 84.20225524902344 73.53826904296875 84.34086608886719 C 74.37361907958984 84.47946929931641 75.21483612060547 84.61847686767578 76.06449127197266 84.75885009765625 C 76.91422271728516 84.89869689941406 77.77264404296875 85.04041290283203 78.64307403564453 85.18346405029297 L 78.67508697509766 85.18910217285156 Z M 171.7965087890625 327.8585510253906 C 171.3585205078125 328.5408630371094 170.9168701171875 329.2265625 170.4723968505859 329.9137573242188 C 170.0280303955078 330.6004028320312 169.5804748535156 331.2890014648438 169.1311798095703 331.9776611328125 C 168.6817626953125 332.6667175292969 168.2302398681641 333.3558349609375 167.7774658203125 334.0440979003906 C 167.3247985839844 334.7322082519531 166.8706665039062 335.4195251464844 166.4163055419922 336.1053771972656 L 162.3438110351562 333.5212097167969 C 162.7951354980469 332.8405151367188 163.2460174560547 332.1578979492188 163.6956329345703 331.4739685058594 C 164.1451416015625 330.7899475097656 164.5934143066406 330.1050720214844 165.0396728515625 329.4211730957031 C 165.4860534667969 328.7367248535156 165.9303283691406 328.0533142089844 166.3715515136719 327.3709411621094 C 166.81298828125 326.6889038085938 167.2515869140625 326.0083923339844 167.6866302490234 325.3302612304688 L 171.7965087890625 327.8585510253906 Z M 160.9138031005859 344.2782287597656 C 160.4539794921875 344.9509582519531 159.990966796875 345.6257019042969 159.5258178710938 346.3009033203125 C 159.0605621337891 346.9765930175781 158.5930938720703 347.6523132324219 158.1242065429688 348.3285522460938 C 157.6555786132812 349.0047607421875 157.1852111816406 349.6800842285156 156.7142944335938 350.3530883789062 C 156.2434997558594 351.0269775390625 155.7720489501953 351.6990661621094 155.3006439208984 352.3678283691406 L 151.3013916015625 349.680419921875 C 151.7696838378906 349.0154113769531 152.2380523681641 348.34765625 152.7058410644531 347.6784362792969 C 153.1736602783203 347.0087585449219 153.6407928466797 346.337646484375 154.1066741943359 345.6661682128906 C 154.5725555419922 344.99560546875 155.0369262695312 344.3231506347656 155.4989471435547 343.6517639160156 C 155.9610748291016 342.9802551269531 156.4209899902344 342.309814453125 156.8781585693359 341.6417846679688 L 160.9138031005859 344.2782287597656 Z M 58.46958923339844 81.76868438720703 L 57.63759994506836 86.83129119873047 C 56.69849395751953 86.66450500488281 55.7861442565918 86.49988555908203 54.89760589599609 86.33798980712891 C 54.00887298583984 86.17555236816406 53.14421844482422 86.01583099365234 52.30044937133789 85.85737609863281 C 51.45637130737305 85.69937896728516 50.63330459594727 85.54312896728516 49.82830429077148 85.38768005371094 C 49.02301025390625 85.23268890380859 48.23578643798828 85.07799530029297 47.46379089355469 84.92462158203125 L 48.39528656005859 79.87476348876953 C 49.1589469909668 80.02678680419922 49.93770599365234 80.17962646484375 50.73467636108398 80.33378601074219 C 51.53135299682617 80.48838806152344 52.34622573852539 80.64330291748047 53.18200302124023 80.80049133300781 C 54.01747131347656 80.9576416015625 54.87419891357422 81.11654663085938 55.75439834594727 81.27769470214844 C 56.63478469848633 81.43931579589844 57.53886795043945 81.6026611328125 58.46958923339844 81.76868438720703 Z M 149.5764923095703 360.3779602050781 C 149.0923004150391 361.0460510253906 148.6063690185547 361.7132873535156 148.1196441650391 362.3796081542969 C 147.6330108642578 363.0458374023438 147.1451416015625 363.7107543945312 146.6575775146484 364.3729553222656 C 146.1698760986328 365.0350341796875 145.6822357177734 365.6952819824219 145.1958312988281 366.3512573242188 C 144.7089538574219 367.0077209472656 144.2232208251953 367.6608581542969 143.7389984130859 368.3079528808594 L 139.8157958984375 365.5188598632812 C 140.2966003417969 364.8751525878906 140.7791290283203 364.2271728515625 141.2624359130859 363.5749816894531 C 141.7461090087891 362.9227600097656 142.2303161621094 362.2677001953125 142.7147064208984 361.6094360351562 C 143.1988525390625 360.9511108398438 143.6834106445312 360.2909240722656 144.1669311523438 359.62890625 C 144.6504516601562 358.9668273925781 145.1329650878906 358.3034362792969 145.6140441894531 357.6400146484375 L 149.5764923095703 360.3779602050781 Z M 38.38036727905273 77.70858001708984 L 37.27338409423828 82.72812652587891 C 36.33366012573242 82.50637054443359 35.42132568359375 82.28530883789062 34.53292465209961 82.06449127197266 C 33.64443969726562 81.84262084960938 32.77991104125977 81.62049102783203 31.93661117553711 81.39715576171875 C 31.09299278259277 81.17374420166016 30.27074813842773 80.94863128662109 29.46677017211914 80.72231292724609 C 28.66261672973633 80.49544525146484 27.87649726867676 80.26638793945312 27.10605812072754 80.03568267822266 L 28.51669692993164 75.0909423828125 C 29.26170921325684 75.31500244140625 30.02253532409668 75.53740692138672 30.80165481567383 75.75762939453125 C 31.58036422729492 75.97731018066406 32.37747955322266 76.19530487060547 33.19560623168945 76.41259765625 C 34.01380920410156 76.62983703613281 34.85300445556641 76.84586334228516 35.71615982055664 77.06114959716797 C 36.57937622070312 77.27738189697266 37.4665412902832 77.49287414550781 38.38036727905273 77.70858001708984 Z M 18.99121284484863 71.69954681396484 L 17.02937698364258 76.45163726806641 C 16.05752182006836 76.03678894042969 15.13103485107422 75.61647033691406 14.24695491790771 75.18874359130859 C 13.36263751983643 74.76041412353516 12.52063274383545 74.32415008544922 11.71834564208984 73.87901306152344 C 10.91572761535645 73.43376159667969 10.15298080444336 72.98012542724609 9.426997184753418 72.51463317871094 C 8.701088905334473 72.050537109375 8.011970520019531 71.57456970214844 7.356781959533691 71.08679962158203 L 10.40993690490723 66.95449066162109 C 10.97120380401611 67.37318420410156 11.57269096374512 67.78652191162109 12.21337604522705 68.19500732421875 C 12.85354900360107 68.60291290283203 13.53302001953125 69.00595855712891 14.25001811981201 69.40265655517578 C 14.96697807312012 69.79927825927734 15.72119045257568 70.18906402587891 16.51187896728516 70.57199859619141 C 17.30250549316406 70.95484924316406 18.12932968139648 71.33085632324219 18.99121284484863 71.69954681396484 Z" stroke="none" fill="#faad5d"/>
    </g>
    <g id="Pfad_7" data-name="Pfad 7" transform="translate(-200.197 370.128)" fill="none" stroke-dasharray="10">
      <path d="M139.887.971s-7.435,3.761-18.625,9.647C109.835,16.63,94.281,24.971,78.4,33.973c-16.484,9.342-33.541,19.52-46.8,28.614C17.692,72.13,7.868,80.55,7.413,85.5c-.48,5.226,9.4,6.006,25.063,4.209,16.356-1.878,38.848-6.548,62.139-11.806,24.138-5.449,48.962-11.49,68.65-15.685,20.307-4.326,35.081-6.672,38.11-4.4" stroke="none"/>
      <path d="M 5.094640731811523 87.49984741210938 L 9.835618019104004 85.59938049316406 C 9.873664855957031 85.76797485351562 9.926340103149414 85.93144989013672 9.993680000305176 86.0897216796875 C 10.06114673614502 86.24813842773438 10.14321136474609 86.40138244628906 10.23983764648438 86.54917907714844 C 10.33658885955811 86.69711303710938 10.4479513168335 86.83943939208984 10.57364749908447 86.97597503662109 C 10.6997184753418 87.11277008056641 10.84016990661621 87.24367523193359 10.99502658843994 87.36846160888672 L 6.285232543945312 89.43466949462891 C 6.123090744018555 89.29788970947266 5.976434230804443 89.15437316894531 5.845480442047119 89.00453948974609 C 5.714804172515869 88.85492706298828 5.599643707275391 88.69908142089844 5.500332355499268 88.53733062744141 C 5.401169300079346 88.37576293945312 5.317721366882324 88.20810699462891 5.250021457672119 88.03499603271484 C 5.1824631690979 87.86212921142578 5.130642890930176 87.68362426757812 5.094640731811523 87.49984741210938 Z M 5.39267110824585 85.02999114990234 C 5.473636150360107 84.8118896484375 5.568761348724365 84.5872802734375 5.677705764770508 84.35659790039062 C 5.786428928375244 84.12662506103516 5.908970355987549 83.89057159423828 6.044998645782471 83.64906311035156 C 6.180741310119629 83.40813446044922 6.329853057861328 83.16172790527344 6.49223804473877 82.91027069091797 C 6.654163360595703 82.65946197509766 6.829307556152344 82.403564453125 7.017157077789307 82.14318084716797 L 11.52681350708008 80.64007568359375 C 11.35476684570312 80.883056640625 11.19481563568115 81.12169647216797 11.04729652404785 81.35552978515625 C 10.89942741394043 81.58988189697266 10.76396751403809 81.81938171386719 10.6411828994751 82.04365539550781 C 10.51816272735596 82.26840209960938 10.40779876708984 82.48789215087891 10.31048393249512 82.70163726806641 C 10.21292972564697 82.91595458984375 10.12834548950195 83.12442779541016 10.05707740783691 83.32691955566406 L 5.39267110824585 85.02999114990234 Z M 9.70866584777832 78.966796875 C 9.960973739624023 78.70287322998047 10.22433090209961 78.43399810791016 10.49835681915283 78.16059112548828 C 10.77180576324463 77.88763427734375 11.05581188201904 77.61015319824219 11.34977626800537 77.32868194580078 C 11.64323711395264 77.04770660400391 11.94662284851074 76.76285552978516 12.25943470001221 76.47445678710938 C 12.57159900665283 76.18670654296875 12.89321231842041 75.89548492431641 13.22362232208252 75.60125732421875 L 17.34276580810547 74.44228363037109 C 17.03006744384766 74.72306060791016 16.72588348388672 75.00084686279297 16.43080902099609 75.27523803710938 C 16.13525581359863 75.55012512207031 15.84873485565186 75.82164001464844 15.57188701629639 76.08910369873047 C 15.29452991485596 76.35707855224609 15.02684783935547 76.62115478515625 14.76935768127441 76.88084411621094 C 14.51141452789307 77.14106750488281 14.26369953155518 77.39678955078125 14.02665996551514 77.64749145507812 L 9.70866584777832 78.966796875 Z M 8.963366508483887 90.77603912353516 L 13.53847599029541 88.58970642089844 C 13.79941940307617 88.66654968261719 14.07532024383545 88.73843383789062 14.36556720733643 88.80514526367188 C 14.65642356872559 88.87204742431641 14.9616641998291 88.93367004394531 15.2808198928833 88.99012756347656 C 15.60058498382568 89.04673767089844 15.93441295623779 89.09798431396484 16.28158187866211 89.14395904541016 C 16.62939453125 89.18991088867188 16.99078941345215 89.23063659667969 17.36516380310059 89.26561737060547 L 12.99859714508057 91.52572631835938 C 12.60335826873779 91.48590850830078 12.22183322906494 91.44026184082031 11.85471057891846 91.38886260986328 C 11.48832225799561 91.33749389648438 11.13628101348877 91.2803955078125 10.7990198135376 91.21770477294922 C 10.46249961853027 91.15508270263672 10.14075565338135 91.08676910400391 9.834347724914551 91.01316070556641 C 9.528613090515137 90.93951416015625 9.238080978393555 90.8603515625 8.963366508483887 90.77603912353516 Z M 17.35697364807129 72.12308502197266 C 17.71014022827148 71.83998870849609 18.07213401794434 71.55297088623047 18.44220352172852 71.26248168945312 C 18.81157112121582 70.97242736816406 19.18898963928223 70.67906188964844 19.57381057739258 70.38266754150391 C 19.95787239074707 70.08695220947266 20.34935760498047 69.78824615478516 20.74736785888672 69.48714447021484 C 21.14474678039551 69.18663787841797 21.54873657226562 68.88360595703125 21.95859909057617 68.57884216308594 L 25.71501350402832 67.66950225830078 C 25.31985092163086 67.96488189697266 24.93056869506836 68.25843048095703 24.54783248901367 68.54954528808594 C 24.16439247131348 68.84117889404297 23.78748512268066 69.13037872314453 23.41782379150391 69.41666412353516 C 23.04755592346191 69.70351409912109 22.68450355529785 69.98737335205078 22.32927131652832 70.26789093017578 C 21.97357749938965 70.54895782470703 21.6257495880127 70.82647705078125 21.28650665283203 71.10004425048828 L 17.35697364807129 72.12308502197266 Z M 18.19154930114746 91.73197937011719 L 22.31177139282227 89.43548583984375 C 22.75069999694824 89.43020629882812 23.20332717895508 89.42069244384766 23.66883087158203 89.40653991699219 C 24.13513374328613 89.39241027832031 24.61430358886719 89.37367248535156 25.10557746887207 89.35060119628906 C 25.59768676757812 89.32760620117188 26.10185241699219 89.29998779296875 26.61748504638672 89.26774597167969 C 27.13393020629883 89.23558044433594 27.6616325378418 89.19904327392578 28.19990158081055 89.15811157226562 L 24.33547019958496 91.46530914306641 C 23.77400970458984 91.50631713867188 23.2233772277832 91.54261016845703 22.68458366394043 91.57424163818359 C 22.14668464660645 91.60581207275391 21.62058639526367 91.63282775878906 21.10705184936523 91.65505218505859 C 20.59446144104004 91.67734527587891 20.09445571899414 91.69486999511719 19.60783195495605 91.7076416015625 C 19.12208366394043 91.72043609619141 18.64972114562988 91.728515625 18.19154930114746 91.73197937011719 Z M 26.9126033782959 65.00263977050781 C 27.32430267333984 64.71331787109375 27.74307823181152 64.42063140869141 28.16824913024902 64.12541961669922 C 28.59276390075684 63.83061218261719 29.0235424041748 63.53306198120117 29.45984649658203 63.23334503173828 C 29.89546012878418 62.93406677246094 30.33665466308594 62.63277816772461 30.78250122070312 62.32981491088867 C 31.22770118713379 62.02724456787109 31.67766761779785 61.72314834594727 32.13152313232422 61.41790008544922 L 35.5963134765625 60.68222808837891 C 35.15388107299805 60.98101425170898 34.71538543701172 61.27867889404297 34.28163528442383 61.57465744018555 C 33.84716796875 61.87102508544922 33.41751861572266 62.1657600402832 32.99326705932617 62.4585075378418 C 32.56839752197266 62.75153350830078 32.14903259277344 63.04251098632812 31.73587036132812 63.33063125610352 C 31.32214164733887 63.61924743652344 30.91461372375488 63.90522766113281 30.51420974731445 64.18795776367188 L 26.9126033782959 65.00263977050781 Z M 31.24759864807129 90.79866790771484 L 34.86412811279297 88.49634552001953 C 35.42729949951172 88.42941284179688 36.00289154052734 88.35829925537109 36.58969879150391 88.28350067138672 C 37.17753219604492 88.20851135253906 37.77664184570312 88.1298828125 38.38611602783203 88.04747009277344 C 38.99658584594727 87.96485900878906 39.6173210144043 87.878662109375 40.24742889404297 87.78877258300781 C 40.87852478027344 87.69892883300781 41.51895523071289 87.60544586181641 42.16770172119141 87.50863647460938 L 38.78328323364258 89.79698181152344 C 38.11420440673828 89.89546203613281 37.45365905761719 89.99052429199219 36.80265808105469 90.08177947998047 C 36.15264129638672 90.17292785644531 35.51217651367188 90.26049041748047 34.8823356628418 90.34406280517578 C 34.25350952148438 90.42768096923828 33.63526916503906 90.50745391845703 33.02862930297852 90.58332824707031 C 32.42298889160156 90.65910339355469 31.82892608642578 90.73086547851562 31.24759864807129 90.79866790771484 Z M 37.55315017700195 57.83834838867188 C 37.99948883056641 57.54860305786133 38.45183944702148 57.25630187988281 38.9092903137207 56.96167755126953 C 39.36602401733398 56.66750335693359 39.82798385620117 56.37118148803711 40.29416275024414 56.07318496704102 C 40.75970458984375 55.77569580078125 41.22950744628906 55.47648239135742 41.70278549194336 55.17607498168945 C 42.17533111572266 54.87620162963867 42.65140151977539 54.57532119750977 43.1299934387207 54.27371597290039 L 46.36833953857422 53.65963363647461 C 45.89847564697266 53.95679092407227 45.43125152587891 54.25318145751953 44.967529296875 54.54841613769531 C 44.50313568115234 54.84421920776367 44.04214096069336 55.13875579833984 43.58544921875 55.43171691894531 C 43.128173828125 55.72509002685547 42.67509841918945 56.01677703857422 42.22712326049805 56.30628967285156 C 41.77853775024414 56.59615707397461 41.33506774902344 56.88384628295898 40.89748382568359 57.16882705688477 L 37.55315017700195 57.83834838867188 Z M 46.83123779296875 88.51505279541016 L 50.00241470336914 86.24525451660156 C 50.65081024169922 86.13393402099609 51.31081771850586 86.01901245117188 51.98109436035156 85.90079498291016 C 52.65236663818359 85.78241729736328 53.33403396606445 85.66064453125 54.02494430541992 85.53578186035156 C 54.71677780151367 85.41072082519531 55.41796493530273 85.28258514404297 56.12712478637695 85.15162658691406 C 56.83733367919922 85.02034759521484 57.55560684204102 84.88624572753906 58.28084182739258 84.74922943115234 L 55.30325698852539 86.99859619140625 C 54.56137084960938 87.13742065429688 53.82646560668945 87.27351379394531 53.09973526000977 87.40673065185547 C 52.37405395507812 87.53959655761719 51.65658950805664 87.66945648193359 50.94845962524414 87.796142578125 C 50.24142837524414 87.92262268066406 49.54370880126953 88.04606628417969 48.85666275024414 88.16606140136719 C 48.17051696777344 88.285888671875 47.4950065612793 88.40227508544922 46.83123779296875 88.51505279541016 Z M 48.8256950378418 50.73056030273438 C 49.29296875 50.44334030151367 49.7653694152832 50.15382766723633 50.24208068847656 49.8624382019043 C 50.71809768676758 49.57147979736328 51.19839859008789 49.27869415283203 51.68208312988281 48.98471069335938 C 52.16511917114258 48.69102478027344 52.65158081054688 48.39613723754883 53.1405143737793 48.10042953491211 C 53.62884902954102 47.80515289306641 54.11973190307617 47.50918579101562 54.61220932006836 47.21292877197266 L 57.67453765869141 46.68542098999023 C 57.18885803222656 46.97843170166016 56.70486068725586 47.2712287902832 56.22338104248047 47.56324005126953 C 55.74132537841797 47.85561752319336 55.26176834106445 48.14719390869141 54.78561019897461 48.43739318847656 C 54.30877304077148 48.72810363769531 53.83539581298828 49.01748657226562 53.36621475219727 49.30510711669922 C 52.89648056030273 49.59318542480469 52.43093109130859 49.87941360473633 51.97053909301758 50.16330718994141 L 48.8256950378418 50.73056030273438 Z M 64.13399505615234 85.28475189208984 L 66.93675231933594 83.05597686767578 C 67.64393615722656 82.91329193115234 68.36277008056641 82.76711273193359 69.09194183349609 82.61801147460938 C 69.82193756103516 82.46855163574219 70.56244659423828 82.31602478027344 71.31204986572266 82.16085052490234 C 72.06268310546875 82.00539398193359 72.82237243652344 81.84703063964844 73.59001159667969 81.68606567382812 C 74.35858917236328 81.52488708496094 75.13512420654297 81.36115264892578 75.91822814941406 81.19523620605469 L 73.27236175537109 83.40467071533203 C 72.47572326660156 83.57237243652344 71.68585205078125 83.73786926269531 70.90396118164062 83.90077972412109 C 70.12303161621094 84.06330871582031 69.35003662109375 84.22327423095703 68.58634948730469 84.38041687011719 C 67.82369232177734 84.53742218017578 67.07023620605469 84.69139099121094 66.32723236083984 84.84234619140625 C 65.58526611328125 84.99298858642578 64.85374450683594 85.14058685302734 64.13399505615234 85.28475189208984 Z M 60.46819305419922 43.72384643554688 C 60.94824600219727 43.44046401977539 61.43281936645508 43.15499496459961 61.92093276977539 42.86809539794922 C 62.40848159790039 42.5814208984375 62.89963912963867 42.29341506958008 63.39350891113281 42.00419998168945 C 63.88674926757812 41.71546936035156 64.38272094726562 41.42575836181641 64.88052368164062 41.13551330566406 C 65.37769317626953 40.84575271606445 65.87673950195312 40.55538177490234 66.37674713134766 40.26497268676758 L 69.30075073242188 39.80037307739258 C 68.80611419677734 40.08834838867188 68.31248474121094 40.37636184692383 67.82068634033203 40.66385650634766 C 67.32830810546875 40.95166015625 66.83779144287109 41.23901748657227 66.34996795654297 41.52528762817383 C 65.86157989501953 41.81201553344727 65.37590026855469 42.09765625 64.89377593994141 42.38175201416016 C 64.41110229492188 42.66626739501953 63.93195724487305 42.94919586181641 63.45735168457031 43.2302360534668 L 60.46819305419922 43.72384643554688 Z M 82.67584991455078 81.38451385498047 L 85.18232727050781 79.19267272949219 C 85.93646240234375 79.02694702148438 86.69622802734375 78.85923004150391 87.46437072753906 78.689208984375 C 88.23333740234375 78.5189208984375 89.01069641113281 78.34614562988281 89.79925537109375 78.17025756835938 C 90.58879089355469 77.99420166015625 91.38948059082031 77.81509399414062 92.20421600341797 77.63207244873047 C 93.02001953125 77.44901275634766 93.84983062744141 77.26207733154297 94.69667816162109 77.07091522216797 L 92.31219482421875 79.2479248046875 C 91.45467376708984 79.44039154052734 90.61434173583984 79.62854766845703 89.7882080078125 79.81294250488281 C 88.96316528320312 79.99714660644531 88.15216064453125 80.17758178710938 87.35253143310547 80.35485076904297 C 86.55392456054688 80.5318603515625 85.76645660400391 80.70587158203125 84.987548828125 80.87736511230469 C 84.20952606201172 81.04871368408203 83.43996429443359 81.21764373779297 82.67584991455078 81.38451385498047 Z M 72.32475280761719 36.83717727661133 C 72.81266784667969 36.55808258056641 73.30451965332031 36.27721405029297 73.79936981201172 35.99506759643555 C 74.29373931884766 35.71326065063477 74.7911376953125 35.43017959594727 75.29068756103516 35.14621734619141 C 75.78968811035156 34.86270523071289 76.29084014892578 34.57844924926758 76.7933349609375 34.29396057128906 C 77.29518890380859 34.00967788696289 77.79840850830078 33.72522735595703 78.30197143554688 33.44093322753906 L 81.11560821533203 33.02280426025391 C 80.61628723144531 33.30521774291992 80.11745452880859 33.5880241394043 79.61986541748047 33.87054061889648 C 79.12178802490234 34.15327072143555 78.62496185302734 34.43567657470703 78.13028717041016 34.71743774414062 C 77.63510894775391 34.99955368041992 77.14212799072266 35.28084945678711 76.65215301513672 35.56085968017578 C 76.16162872314453 35.84116363525391 75.67411804199219 36.12018966674805 75.19064331054688 36.39758682250977 L 72.32475280761719 36.83717727661133 Z M 102.1516952514648 77.01594543457031 L 104.4323654174805 74.85069274902344 C 105.1753463745117 74.67970275878906 105.9353103637695 74.50473022460938 106.7151565551758 74.32492065429688 C 107.4958343505859 74.14468383789062 108.2963943481445 73.95958709716797 109.1199188232422 73.76907348632812 C 109.9444274902344 73.57833862304688 110.7918014526367 73.38186645507812 111.6652679443359 73.17916870117188 C 112.5397491455078 72.97629547119141 113.4404602050781 72.76710510253906 114.3701553344727 72.55085754394531 L 112.1738357543945 74.70841217041016 C 111.2364883422852 74.92539215087891 110.3284225463867 75.13528442382812 109.4465560913086 75.33877563476562 C 108.5658874511719 75.5421142578125 107.7113265991211 75.73919677734375 106.8798446655273 75.93064117431641 C 106.0493621826172 76.12178802490234 105.2418975830078 76.30740356445312 104.4544830322266 76.48827362060547 C 103.6679992675781 76.6688232421875 102.9013824462891 76.84442138671875 102.1516952514648 77.01594543457031 Z M 84.30049896240234 30.07597732543945 C 84.79328155517578 29.80130004882812 85.28949737548828 29.52495193481445 85.78830718994141 29.24765014648438 C 86.28662109375 28.97062110900879 86.78751373291016 28.6926441192627 87.2900390625 28.41394805908203 C 87.79210662841797 28.13567733764648 88.29579925537109 27.85680770874023 88.80036926269531 27.57790565490723 C 89.30435180664062 27.29929542541504 89.80908966064453 27.02058792114258 90.31385803222656 26.74235153198242 L 93.03763580322266 26.3592700958252 C 92.53639221191406 26.63619422912598 92.03515625 26.91357803344727 91.53471374511719 27.19091033935547 C 91.03369903564453 27.46842384338379 90.53350830078125 27.74584770202637 90.03508758544922 28.02289390563965 C 89.53610992431641 28.30013465881348 89.03874206542969 28.57674789428711 88.54399871826172 28.85241317749023 C 88.04879760742188 29.12835121154785 87.55614471435547 29.40321922302246 87.0670166015625 29.67658042907715 L 84.30049896240234 30.07597732543945 Z M 122.3499908447266 72.34758758544922 L 124.4849624633789 70.19237518310547 L 124.5174713134766 70.18482208251953 C 125.3977432250977 69.97908020019531 126.2670059204102 69.77622985839844 127.1282272338867 69.57528686523438 C 127.9904174804688 69.37405395507812 128.8445587158203 69.17473602294922 129.6937103271484 68.97657012939453 C 130.5439910888672 68.77834320068359 131.3893127441406 68.58119964599609 132.2328186035156 68.38481903076172 C 133.0772399902344 68.18813323974609 133.9199829101562 67.99200439453125 134.7640380859375 67.79586791992188 L 132.6622772216797 69.95537567138672 C 131.816162109375 70.15114593505859 130.9712219238281 70.34683227539062 130.1242065429688 70.54306793212891 C 129.2781524658203 70.73906707763672 128.4302368164062 70.9356689453125 127.5770950317383 71.13358306884766 C 126.7250137329102 71.33120727539062 125.8678741455078 71.53028106689453 125.0026321411133 71.7313232421875 C 124.1383666992188 71.9320068359375 123.2661590576172 72.13477325439453 122.3825454711914 72.33992004394531 L 122.3499908447266 72.34758758544922 Z M 96.33659362792969 23.43982696533203 C 96.83238983154297 23.1693286895752 97.33119201660156 22.89761734008789 97.83200836181641 22.62506675720215 C 98.3323974609375 22.35284996032715 98.83485412597656 22.07977294921875 99.33848571777344 21.80644798278809 C 99.84159851074219 21.53340148925781 100.3459014892578 21.26001930236816 100.8506240844727 20.98675346374512 C 101.3547515869141 20.71379852294922 101.8592910766602 20.44106292724609 102.3631896972656 20.16888809204102 L 105.011833190918 19.81326675415039 C 104.5108489990234 20.0843448638916 104.0093154907227 20.35605239868164 103.5081481933594 20.6279125213623 C 103.006462097168 20.90010070800781 102.5051422119141 21.17244529724121 102.0050354003906 21.44438743591309 C 101.5043716430664 21.71671295166016 101.0049819946289 21.98864555358887 100.5076599121094 22.25985908508301 C 100.0097961425781 22.53128051757812 99.51406860351562 22.80187797546387 99.02129364013672 23.07124328613281 L 96.33659362792969 23.43982696533203 Z M 108.3992080688477 16.9245548248291 C 108.8984603881836 16.65752220153809 109.3999481201172 16.38953590393066 109.9029159545898 16.12109375 C 110.4054107666016 15.85287094116211 110.909309387207 15.58429050445557 111.4137496948242 15.31562423706055 C 111.9176559448242 15.04721355438232 112.4221878051758 14.77893352508545 112.9263687133789 14.5110969543457 C 113.4300689697266 14.24346351623535 113.9333953857422 13.97641849517822 114.4355621337891 13.71024608612061 L 117.0183563232422 13.37734508514404 C 116.5188598632812 13.64260292053223 116.0181579589844 13.90882587432861 115.5171127319336 14.17543125152588 C 115.0156555175781 14.44240283966064 114.5137939453125 14.70986270904541 114.0125198364258 14.9772834777832 C 113.5107116699219 15.24495887756348 113.0095367431641 15.51271820068359 112.5097579956055 15.779953956604 C 112.009521484375 16.04751014709473 111.5106887817383 16.31454277038574 111.0141143798828 16.58067893981934 L 108.3992080688477 16.9245548248291 Z M 143.0759429931641 67.56167602539062 L 145.1817626953125 65.38881683349609 C 146.1509552001953 65.16671752929688 147.0931549072266 64.95130920410156 148.0112152099609 64.74234008789062 C 148.9304809570312 64.53299713134766 149.8254547119141 64.32973480224609 150.6992950439453 64.13204956054688 C 151.5741577148438 63.93407440185547 152.4277191162109 63.74177551269531 153.2629547119141 63.5542106628418 C 154.0992279052734 63.36652374267578 154.9170074462891 63.18356323242188 155.7195892333984 63.00492095947266 L 153.5569458007812 65.20353698730469 C 152.7597808837891 65.38018798828125 151.9469146728516 65.56084442138672 151.11572265625 65.74638366699219 C 150.2855072021484 65.93172454833984 149.4367523193359 66.12200927734375 148.5665740966797 66.31782531738281 C 147.697509765625 66.51328277587891 146.8070220947266 66.71429443359375 145.8923034667969 66.92169952392578 C 144.9787139892578 67.12857818603516 144.0408935546875 67.34175109863281 143.0759429931641 67.56167602539062 Z M 120.475212097168 10.52338314056396 C 120.9811172485352 10.25762939453125 121.4878921508789 9.991828918457031 121.9945907592773 9.726293563842773 C 122.5007781982422 9.461002349853516 123.0069808959961 9.19608211517334 123.5122680664062 8.931938171386719 C 124.0170745849609 8.668088912963867 124.5208892822266 8.405007362365723 125.0228958129883 8.143056869506836 C 125.5244903564453 7.88145112991333 126.0242462158203 7.621020317077637 126.5213623046875 7.362381458282471 L 129.0407104492188 7.051482200622559 C 128.5462493896484 7.309238910675049 128.0491485595703 7.5686354637146 127.5502700805664 7.829367160797119 C 127.0508880615234 8.090229988098145 126.5496978759766 8.352431297302246 126.0476531982422 8.615408897399902 C 125.5450668334961 8.878623962402344 125.0415802001953 9.14256477355957 124.5380859375 9.406922340393066 C 124.0340194702148 9.67152214050293 123.5300140380859 9.936493873596191 123.0267562866211 10.20125579833984 L 120.475212097168 10.52338314056396 Z M 164.0473175048828 62.93705368041992 L 166.3484191894531 60.69443893432617 C 167.3318939208984 60.48703384399414 168.2867584228516 60.28746032714844 169.2161560058594 60.09521484375 C 170.1470489501953 59.90272521972656 171.0524597167969 59.71769714355469 171.9354400634766 59.53973388671875 C 172.8197326660156 59.36137008666992 173.6812744140625 59.18973922729492 174.5233001708984 59.0244255065918 C 175.3664855957031 58.85880661010742 176.1902313232422 58.69968032836914 176.9972534179688 58.54590606689453 L 174.4182586669922 60.85942459106445 C 173.6350708007812 61.00739288330078 172.8349609375 61.16082763671875 172.0150146484375 61.32045745849609 C 171.1963500976562 61.48001861572266 170.35791015625 61.64575576782227 169.4968414306641 61.81829071044922 C 168.6369171142578 61.99058532714844 167.7544708251953 62.16965103149414 166.8465881347656 62.35622406005859 C 165.9398345947266 62.54230499267578 165.0077514648438 62.73571014404297 164.0473175048828 62.93705368041992 Z M 184.4087371826172 59.15365219116211 L 187.5341949462891 56.72934341430664 C 188.5470123291016 56.57868957519531 189.5094146728516 56.44404602050781 190.4244537353516 56.32568740844727 C 191.3413238525391 56.20690536499023 192.2106323242188 56.10436248779297 193.0348510742188 56.01765823364258 C 193.8609161376953 55.93083953857422 194.6416778564453 55.85988235473633 195.3800201416016 55.8046875 C 196.1197967529297 55.74919128417969 196.8170471191406 55.70948028564453 197.4744262695312 55.68538284301758 L 193.2358703613281 58.24144744873047 C 192.6734619140625 58.26005554199219 192.0653686523438 58.2933349609375 191.4126281738281 58.34107971191406 C 190.7611541748047 58.3889274597168 190.0653991699219 58.45092391967773 189.3268127441406 58.52735137939453 C 188.5895690917969 58.60348892211914 187.809814453125 58.69412612915039 186.9889068603516 58.79870223999023 C 186.1694183349609 58.90312957763672 185.3089599609375 59.02156066894531 184.4087371826172 59.15365219116211 Z" stroke="none" fill="#faad5d"/>
    </g>
    <g id="Pfad_8" data-name="Pfad 8" transform="translate(-232.377 401.025)" fill="none" stroke-dasharray="10">
      <path d="M7.709,159.238s12.313-7.085,30.276-18.106C55.4,130.444,77.714,116.312,98.7,101.717c20-13.9,38.55-28.06,50.6-40.066,11.413-11.373,16.967-20.793,12.522-26.368-4.225-5.3-17.009-6.615-33.52-5.868-15.935.721-35.52,3.372-54.445,6.292-18.44,2.845-36.379,5.966-49.724,7.818C11.066,45.34,2.364,45.944,1.977,43.87" stroke="none"/>
      <path d="M 163.033203125 33.3611946105957 L 158.4526824951172 34.97200775146484 C 158.2451782226562 34.79031753540039 158.0234375 34.61322784423828 157.7879638671875 34.44114303588867 C 157.5530700683594 34.2696533203125 157.3044128417969 34.10288238525391 157.0425567626953 33.94125747680664 C 156.7813262939453 33.78019714355469 156.5070648193359 33.6242790222168 156.2200469970703 33.47385406494141 C 155.93359375 33.32372283935547 155.6344757080078 33.17895889282227 155.3233337402344 33.03998565673828 L 159.6092987060547 31.29968452453613 C 159.9484558105469 31.44754028320312 160.2747192382812 31.6016788482666 160.5875244140625 31.76172065734863 C 160.9009399414062 31.92207717895508 161.2008819580078 32.08836364746094 161.4865875244141 32.26014709472656 C 161.7730407714844 32.43254470825195 162.0455780029297 32.61076736450195 162.3031921386719 32.79397964477539 C 162.5614318847656 32.97768783569336 162.8048858642578 33.16692352294922 163.033203125 33.3611946105957 Z M 165.0963134765625 35.97991561889648 C 165.2068328857422 36.21249389648438 165.3046417236328 36.4517936706543 165.3894500732422 36.6976203918457 C 165.474365234375 36.94368362426758 165.54638671875 37.19610214233398 165.6050872802734 37.45451354980469 C 165.6640167236328 37.71322250366211 165.7096862792969 37.97799301147461 165.7421264648438 38.24831390380859 C 165.7744750976562 38.5190315246582 165.79345703125 38.79531097412109 165.7989196777344 39.07648086547852 L 160.9166259765625 40.33437347412109 C 160.9161682128906 40.06974029541016 160.9033050537109 39.80974578857422 160.8775634765625 39.55505752563477 C 160.8519897460938 39.30075454711914 160.8139953613281 39.05169296264648 160.7635498046875 38.80826568603516 C 160.7131805419922 38.56515502929688 160.6505889892578 38.32780838012695 160.5758056640625 38.09648132324219 C 160.5010375976562 37.86532592773438 160.4142150878906 37.64030456542969 160.3152770996094 37.42155075073242 L 165.0963134765625 35.97991561889648 Z M 165.2787628173828 42.55435180664062 C 165.1921997070312 42.84731674194336 165.0942840576172 43.14607620239258 164.9852294921875 43.45023727416992 C 164.8760528564453 43.75513458251953 164.7556610107422 44.0654411315918 164.6243896484375 44.3806266784668 C 164.4928741455078 44.69643402099609 164.3502044677734 45.01723480224609 164.1967620849609 45.34223937988281 C 164.0429382324219 45.66786956787109 163.8783416748047 45.99800109863281 163.7030792236328 46.33203125 L 158.8135986328125 47.24004364013672 C 158.9852447509766 46.92074584960938 159.1467895507812 46.60520553588867 159.2978515625 46.2939338684082 C 159.4486389160156 45.98324203491211 159.589111328125 45.67684555053711 159.7190704345703 45.37540054321289 C 159.8489074707031 45.07443618774414 159.9680328369141 44.77798080444336 160.0764923095703 44.48689651489258 C 160.1847076416016 44.19622039794922 160.2824096679688 43.91104125976562 160.3691101074219 43.63134765625 L 165.2787628173828 42.55435180664062 Z M 154.9765777587891 29.8134593963623 L 151.0458831787109 31.63553810119629 C 150.6568756103516 31.54242134094238 150.2546539306641 31.45327377319336 149.8401641845703 31.36861991882324 C 149.4263305664062 31.28399085998535 149.0001983642578 31.20394897460938 148.5625152587891 31.12815856933594 C 148.1255035400391 31.0523738861084 147.6771697998047 30.98110198974609 147.2180023193359 30.91443634033203 C 146.7597045898438 30.8477897644043 146.2906188964844 30.78561592102051 145.8116760253906 30.72821807861328 L 149.3718872070312 28.86754417419434 C 149.8834381103516 28.92711448669434 150.3846588134766 28.9913330078125 150.8746795654297 29.06062507629395 C 151.3656921386719 29.12983322143555 151.8455047607422 29.20401763916016 152.3133697509766 29.28294563293457 C 152.7820739746094 29.36201095581055 153.2387084960938 29.4456958770752 153.6824340820312 29.53396987915039 C 154.1270141601562 29.62265014648438 154.5588226318359 29.71584320068359 154.9765777587891 29.8134593963623 Z M 161.2322387695312 50.34299850463867 C 161.000732421875 50.67465591430664 160.7592468261719 51.01137924194336 160.50830078125 51.35260009765625 C 160.2571105957031 51.69477081298828 159.9962158203125 52.04128646850586 159.7265014648438 52.39207077026367 C 159.4560089111328 52.74317169189453 159.176513671875 53.09852600097656 158.8885345458984 53.45743560791016 C 158.5998840332031 53.81698226928711 158.3026733398438 54.17996215820312 157.9972381591797 54.54587173461914 L 153.2171020507812 55.15874099731445 C 153.5162963867188 54.80489349365234 153.8074798583984 54.45393371582031 154.0903778076172 54.10624694824219 C 154.3726806640625 53.75928115844727 154.6466522216797 53.41579818725586 154.9119110107422 53.07628631591797 C 155.1765899658203 52.73734283447266 155.4325866699219 52.40234756469727 155.6793212890625 52.07194519042969 C 155.9254913330078 51.74197006225586 156.1625061035156 51.41659545898438 156.3900604248047 51.09643173217773 L 161.2322387695312 50.34299850463867 Z M 143.0454864501953 28.39158248901367 L 139.8344268798828 30.25924491882324 C 139.3290557861328 30.23741149902344 138.8123016357422 30.21876335144043 138.2854309082031 30.20347595214844 C 137.7592163085938 30.18842506408691 137.2228546142578 30.17659759521484 136.6772613525391 30.16825485229492 C 136.1324157714844 30.159912109375 135.5783081054688 30.155029296875 135.01611328125 30.15356826782227 C 134.4546203613281 30.15209579467773 133.8849029541016 30.15398216247559 133.3078765869141 30.1592845916748 L 136.2110443115234 28.30380058288574 C 136.8141021728516 28.29697608947754 137.4098358154297 28.29366302490234 137.9972229003906 28.29394340515137 C 138.58544921875 28.29422569274902 139.1653900146484 28.29788208007812 139.7359008789062 28.30522918701172 C 140.3072204589844 28.31234359741211 140.8692474365234 28.32318496704102 141.4207458496094 28.33779907226562 C 141.9731140136719 28.35220336914062 142.5150756835938 28.37007331848145 143.0454864501953 28.39158248901367 Z M 154.1056213378906 58.90796279907227 C 153.7668151855469 59.26646423339844 153.4192199707031 59.62964248657227 153.0634307861328 59.99691390991211 C 152.7068634033203 60.3646354675293 152.3423004150391 60.73654174804688 151.9700775146484 61.1119384765625 C 151.5970916748047 61.48783493041992 151.2165679931641 61.86712646484375 150.8289337158203 62.2491569519043 C 150.4407806396484 62.63192367553711 150.0455169677734 63.01759719848633 149.6437835693359 63.4051399230957 L 145.0059051513672 63.77325057983398 C 145.4008483886719 63.39555358886719 145.7895812988281 63.0198860168457 146.1713714599609 62.6470832824707 C 146.5525817871094 62.27481842041016 146.9269714355469 61.90544128417969 147.2937164306641 61.53922271728516 C 147.6599426269531 61.17367172241211 148.0186767578125 60.81155395507812 148.3694000244141 60.45339202880859 C 148.7195587158203 60.09598922729492 149.0615692138672 59.74216842651367 149.3950500488281 59.3931884765625 L 154.1056213378906 58.90796279907227 Z M 129.0329895019531 28.52765846252441 L 126.3906784057617 30.36103630065918 C 125.8228454589844 30.38758659362793 125.2456283569336 30.41714477539062 124.6597747802734 30.4492015838623 C 124.0746765136719 30.48134422302246 123.4810180664062 30.5159797668457 122.8800201416016 30.55319404602051 C 122.2797622680664 30.59036254882812 121.6721572875977 30.63020515441895 121.0580596923828 30.67236518859863 C 120.4448318481445 30.71448516845703 119.8251876831055 30.75915908813477 119.2003402709961 30.80621910095215 L 121.6272048950195 28.99863052368164 C 122.2699813842773 28.94918632507324 122.907470703125 28.90219879150391 123.5387496948242 28.85779571533203 C 124.1707153320312 28.81331062316895 124.7963943481445 28.77127838134766 125.4147186279297 28.73203086853027 C 126.0338134765625 28.69272232055664 126.6453552246094 28.65582466125488 127.2483825683594 28.62178611755371 C 127.8520965576172 28.58757781982422 128.4474029541016 28.55625915527344 129.0329895019531 28.52765846252441 Z M 144.6770629882812 68.02271270751953 C 144.2549743652344 68.40241241455078 143.824462890625 68.78594970703125 143.3869476318359 69.17333984375 C 142.94873046875 69.56127166748047 142.5030212402344 69.9527587890625 142.0507659912109 70.34728240966797 C 141.5977630615234 70.74231719970703 141.1382293701172 71.14041137695312 140.6728973388672 71.54077911376953 C 140.2066955566406 71.94164276123047 139.7346038818359 72.34461975097656 139.2576599121094 72.74943542480469 L 134.7674102783203 72.90803527832031 C 135.2378234863281 72.51188659667969 135.7033538818359 72.11714935302734 136.1631622314453 71.72488403320312 C 136.6220550537109 71.33309173583984 137.0752868652344 70.94353485107422 137.5221557617188 70.55689239501953 C 137.9682159423828 70.17084503173828 138.4077606201172 69.78762817382812 138.8401641845703 69.40802764892578 C 139.2718353271484 69.0291748046875 139.6964263916016 68.65370941162109 140.1129150390625 68.28248596191406 L 144.6770629882812 68.02271270751953 Z M 114.0741424560547 29.66508674621582 L 111.8222808837891 31.44629287719727 C 111.2244567871094 31.5042552947998 110.6180114746094 31.56465148925781 110.0041732788086 31.62704467773438 C 109.390983581543 31.68935775756836 108.7703704833984 31.7539176940918 108.1433944702148 31.82036781311035 C 107.5171585083008 31.88687133789062 106.8844223022461 31.95524787902832 106.24658203125 32.02545547485352 C 105.6094970703125 32.09572219848633 104.9670791625977 32.16777801513672 104.320671081543 32.24159622192383 L 106.4324798583984 30.48538780212402 C 107.0904922485352 30.40941619873047 107.7443923950195 30.33515739440918 108.393180847168 30.26271438598633 C 109.0427017211914 30.1904239654541 109.6869583129883 30.11992073059082 110.3249816894531 30.05144882202148 C 110.9636840820312 29.98301315307617 111.5960464477539 29.91636085510254 112.2208862304688 29.85190200805664 C 112.8465118408203 29.78738403320312 113.464599609375 29.72507858276367 114.0741424560547 29.66508674621582 Z M 133.4269714355469 77.57670593261719 C 132.9363098144531 77.97373199462891 132.4380340576172 78.374755859375 131.9332122802734 78.77921295166016 C 131.4275665283203 79.18402862548828 130.9152526855469 79.59243011474609 130.3971710205078 80.00315856933594 C 129.8782958984375 80.41459655761719 129.3535919189453 80.82851409912109 128.823974609375 81.24441528320312 C 128.29345703125 81.66072082519531 127.7580337524414 82.07901000976562 127.2187652587891 82.49858093261719 L 122.8755187988281 82.47123718261719 C 123.4083938598633 82.05946350097656 123.9373626708984 81.64875030517578 124.4616394042969 81.24009704589844 C 124.9848175048828 80.83181762695312 125.5033950805664 80.42548370361328 126.0162811279297 80.02178192138672 C 126.5282897949219 79.61866760253906 127.0346298217773 79.21803283691406 127.5342788696289 78.82062530517578 C 128.0331573486328 78.42353820800781 128.5255584716797 78.02969360351562 129.0105438232422 77.64002990722656 L 133.4269714355469 77.57670593261719 Z M 98.74198150634766 31.42687034606934 L 96.74016571044922 33.16028213500977 C 96.13121795654297 33.23794174194336 95.51398468017578 33.31764602661133 94.889404296875 33.39915084838867 C 94.26555633544922 33.48070526123047 93.63432312011719 33.56406021118164 92.99694061279297 33.64890670776367 C 92.36018371582031 33.73367691040039 91.71736145019531 33.82018280029297 91.06955718994141 33.90822601318359 C 90.42234802246094 33.99617767333984 89.77019500732422 34.08555221557617 89.11410522460938 34.17634582519531 L 91.03150177001953 32.46270370483398 C 91.69441986083984 32.3702507019043 92.35353088378906 32.27912902832031 93.00767517089844 32.18952560424805 C 93.66249847412109 32.09983444213867 94.31240081787109 32.01168060302734 94.95615386962891 31.92523574829102 C 95.60053253173828 31.83870315551758 96.23881530761719 31.75378227233887 96.869873046875 31.67068862915039 C 97.50157928466797 31.58750915527344 98.1259765625 31.50624084472656 98.74198150634766 31.42687034606934 Z M 120.6592788696289 87.51000213623047 C 120.1095733642578 87.92275238037109 119.5529556274414 88.3394775390625 118.9901580810547 88.75901031494141 C 118.4265213012695 89.17937469482422 117.8566970825195 89.60247039794922 117.281852722168 90.02804565429688 C 116.7059783935547 90.45417785644531 116.1250686645508 90.88251495361328 115.539924621582 91.31233215332031 C 114.9538345336914 91.74269104003906 114.3635787963867 92.17478179931641 113.7702484130859 92.60771942138672 L 109.5730438232422 92.40917205810547 C 110.1600494384766 91.98352813720703 110.7439651489258 91.55849456787109 111.3237991333008 91.13507843017578 C 111.9026336669922 90.71238708496094 112.4774322509766 90.29100036621094 113.0471267700195 89.87200164794922 C 113.6160125732422 89.45364379882812 114.1797561645508 89.03734588623047 114.7374496459961 88.62408447265625 C 115.294319152832 88.21157836914062 115.8451538085938 87.80177307128906 116.3890075683594 87.39565277099609 L 120.6592788696289 87.51000213623047 Z M 83.32460784912109 33.57095718383789 L 81.46916961669922 35.26769256591797 C 80.85586547851562 35.35763931274414 80.23929595947266 35.44856643676758 79.61736297607422 35.54085922241211 C 78.99598693847656 35.63309097290039 78.36922454833984 35.7266845703125 77.73478698730469 35.82201766967773 C 77.10091400146484 35.91713714599609 76.45953369140625 36.0140380859375 75.80823516845703 36.1129150390625 C 75.1575927734375 36.21159744262695 74.49712371826172 36.31228256225586 73.82472991943359 36.41522979736328 L 75.6385498046875 34.73245620727539 C 76.31435394287109 34.62825775146484 76.97819519042969 34.52632141113281 77.63222503662109 34.42658615112305 C 78.28691864013672 34.3265495300293 78.93180084228516 34.22862243652344 79.56908416748047 34.1323127746582 C 80.20698547363281 34.03593826293945 80.83723449707031 33.9411735534668 81.46212768554688 33.84778213500977 C 82.08761596679688 33.75431060791016 82.70767211914062 33.66207885742188 83.32460784912109 33.57095718383789 Z M 106.5692443847656 97.78909301757812 C 105.9669342041016 98.2166748046875 105.358039855957 98.64794921875 104.7433700561523 99.08180236816406 C 104.1278839111328 99.51651000976562 103.5065689086914 99.95367431640625 102.8808364868164 100.3930206298828 C 102.2540283203125 100.8328399658203 101.6226119995117 101.2747802734375 100.9876327514648 101.717658996582 C 100.3517074584961 102.1613922119141 99.71223449707031 102.6062545776367 99.07035827636719 103.0517654418945 L 95.02047729492188 102.6911087036133 C 95.65599822998047 102.2526626586914 96.28903198242188 101.814453125 96.91859436035156 101.3773422241211 C 97.54729461669922 100.9411392211914 98.17243957519531 100.5061111450195 98.79309844970703 100.0729675292969 C 99.41277313232422 99.64035797119141 100.0278167724609 99.20970916748047 100.6373443603516 98.78160095214844 C 101.245964050293 98.35440063476562 101.8489303588867 97.92975616455078 102.4452972412109 97.50844573974609 L 106.5692443847656 97.78909301757812 Z M 67.99014282226562 35.93019104003906 L 66.19904327392578 37.60211944580078 C 65.62479400634766 37.69279479980469 65.03851318359375 37.78556060791016 64.43807220458984 37.88059997558594 C 63.83813858032227 37.97591018676758 63.22414398193359 38.0736083984375 62.59374618530273 38.17403793334961 C 61.96391677856445 38.27436447143555 61.31787490844727 38.37757110595703 60.65341186523438 38.48410034179688 C 59.98957443237305 38.59030532836914 59.30732345581055 38.69961166381836 58.6046028137207 38.81246566772461 L 60.391357421875 37.14841842651367 C 61.09420776367188 37.03480529785156 61.77663421630859 36.92476272583008 62.44073486328125 36.81781005859375 C 63.10543441772461 36.71077728271484 63.75180435180664 36.60696411132812 64.38199615478516 36.50600433349609 C 65.0126953125 36.40483093261719 65.62718963623047 36.30665588378906 66.22759246826172 36.21071624755859 C 66.82845306396484 36.11483764648438 67.41525268554688 36.02145767211914 67.99014282226562 35.93019104003906 Z M 91.28505706787109 108.3947525024414 C 90.634033203125 108.8366165161133 89.97674560546875 109.2819290161133 89.31414031982422 109.7298278808594 C 88.65055084228516 110.1780776977539 87.98176574707031 110.6289138793945 87.30891418457031 111.0814743041992 C 86.63502502441406 111.5346374511719 85.95699310302734 111.9894104003906 85.27603912353516 112.4451675415039 C 84.59414672851562 112.9014358520508 83.90933990478516 113.3588180541992 83.22270202636719 113.8161392211914 L 79.32417297363281 113.2979583740234 C 80.004150390625 112.8472595214844 80.68251800537109 112.3965911865234 81.35784149169922 111.9466094970703 C 82.03233337402344 111.4976959228516 82.70395660400391 111.049446105957 83.37143707275391 110.6027297973633 C 84.03791809082031 110.1566543579102 84.70045471191406 109.7124938964844 85.35782623291016 109.2707290649414 C 86.01415252685547 108.8294677734375 86.66536712646484 108.3906021118164 87.31021118164062 107.9548873901367 L 91.28505706787109 108.3947525024414 Z M 52.86214065551758 38.36997985839844 L 51.0606689453125 40.0296516418457 L 51.03672409057617 40.03346633911133 C 50.38882827758789 40.13827514648438 49.75043106079102 40.24150085449219 49.11921310424805 40.34341812133789 C 48.48860549926758 40.44537734985352 47.86513137817383 40.5460090637207 47.24662017822266 40.64596939086914 C 46.62856292724609 40.74568557739258 46.015380859375 40.8446044921875 45.40473175048828 40.94292831420898 C 44.79461288452148 41.04116821289062 44.18703079223633 41.13883209228516 43.57973861694336 41.23627471923828 L 45.41725540161133 39.57780838012695 C 46.02116775512695 39.48018264770508 46.62548065185547 39.3823356628418 47.23250961303711 39.28415679931641 C 47.84006881713867 39.18589782714844 48.45026779174805 39.08693313598633 49.06535339355469 38.98703384399414 C 49.68105697631836 38.88727951049805 50.30165863037109 38.7863883972168 50.92945098876953 38.68436813354492 C 51.55776977539062 38.58217620849609 52.19329071044922 38.47878265380859 52.83831787109375 38.37394332885742 L 52.86214065551758 38.36997985839844 Z M 74.89185333251953 119.3144149780273 C 74.19470977783203 119.7705764770508 73.49158477783203 120.2295379638672 72.78385162353516 120.690544128418 C 72.07506561279297 121.1524276733398 71.36146545410156 121.6160736083984 70.64450073242188 122.081184387207 C 69.92647552490234 122.5469665527344 69.20491027832031 123.0140075683594 68.48114013671875 123.4815063476562 C 67.75636291503906 123.9498138427734 67.02921295166016 124.4182205200195 66.30117797851562 124.8866500854492 L 62.56150054931641 124.2116470336914 C 63.28266143798828 123.7499313354492 64.00287628173828 123.2878646850586 64.72080993652344 122.8263168334961 C 65.43782806396484 122.3654098510742 66.15251922607422 121.9048004150391 66.86383819580078 121.4457168579102 C 67.57415008544922 120.9871520996094 68.28102111816406 120.5299453735352 68.983154296875 120.0746383666992 C 69.68433380126953 119.6200256347656 70.38091278076172 119.1675796508789 71.07159423828125 118.7180633544922 L 74.89185333251953 119.3144149780273 Z M 57.44354248046875 130.5388488769531 C 56.6995849609375 131.0096435546875 55.95049285888672 131.4831085205078 55.19754409790039 131.9580535888672 C 54.44355773925781 132.43359375 53.68566131591797 132.910400390625 52.92521667480469 133.3882293701172 C 52.16384124755859 133.8670501708984 51.39974212646484 134.3459014892578 50.63445281982422 134.8246765136719 C 49.86813735961914 135.304443359375 49.1005744934082 135.783935546875 48.3331298828125 136.2623596191406 L 44.76498794555664 135.4278259277344 C 45.52490615844727 134.9561309814453 46.28498077392578 134.4832611083984 47.04384994506836 134.0105133056641 C 47.80170440673828 133.5381927490234 48.55836486816406 133.0657653808594 49.31254959106445 132.5942230224609 C 50.06567001342773 132.1231689453125 50.81626510620117 131.6527557373047 51.56301498413086 131.1838989257812 C 52.30876922607422 130.7155151367188 53.05073165893555 130.2488403320312 53.78764724731445 129.7846374511719 L 57.44354248046875 130.5388488769531 Z M 38.08671951293945 40.74946975708008 L 36.1876220703125 42.41078186035156 C 35.50969314575195 42.51703643798828 34.85236358642578 42.61958312988281 34.21344757080078 42.7186393737793 C 33.57515335083008 42.81762313842773 32.95522689819336 42.91316223144531 32.35149383544922 43.00582885742188 C 31.7482795715332 43.09822082519531 31.16128921508789 43.18764114379883 30.5882625579834 43.27432250976562 C 30.01569747924805 43.36084365844727 29.45713424682617 43.44467163085938 28.91038131713867 43.52624130249023 L 30.90449905395508 41.85738754272461 C 31.44353485107422 41.77632904052734 31.99439430236816 41.69306945800781 32.55921173095703 41.60709762573242 C 33.12446212768555 41.52107238769531 33.70371246337891 41.43232727050781 34.29903793334961 41.34050750732422 C 34.89484405517578 41.24860763549805 35.50682830810547 41.15374374389648 36.13705444335938 41.0552978515625 C 36.76788711547852 40.95690155029297 37.41706085205078 40.85494613647461 38.08671951293945 40.74946975708008 Z M 38.96702575683594 142.0579833984375 C 38.17106628417969 142.5469512939453 37.37215423583984 143.0367279052734 36.57159423828125 143.5265350341797 C 35.76999282836914 144.0171661376953 34.96672439575195 144.5074462890625 34.16323471069336 144.9969024658203 C 33.35870361328125 145.4871063232422 32.55401611328125 145.9767913818359 31.75060272216797 146.4647064208984 C 30.9460277557373 146.9532165527344 30.14275741577148 147.4400024414062 29.34212875366211 147.9242095947266 L 25.96774673461914 146.9208984375 C 26.75973892211914 146.4439086914062 27.55446815490723 145.9643249511719 28.3504753112793 145.4829711914062 C 29.1454963684082 145.0024108886719 29.94174575805664 144.5200805664062 30.73782920837402 144.0369873046875 C 31.53282356262207 143.5543975830078 32.32770156860352 143.0711212158203 33.12105178833008 142.5878601074219 C 33.91328430175781 142.1052703857422 34.70393371582031 141.6224670410156 35.49172210693359 141.1406097412109 L 38.96702575683594 142.0579833984375 Z M 23.92807197570801 42.86063385009766 L 21.79045486450195 44.54270935058594 C 21.14371681213379 44.63005065917969 20.51801109313965 44.71303939819336 19.9112548828125 44.79190826416016 C 19.30510330200195 44.87048721313477 18.71783065795898 44.94503784179688 18.1474437713623 45.01560592651367 C 17.57761001586914 45.08599853515625 17.02455139160156 45.15253448486328 16.48628997802734 45.21548080444336 C 15.94852066040039 45.27845001220703 15.42549705505371 45.33759689331055 14.9151725769043 45.39348602294922 L 17.27401542663574 43.69231033325195 C 17.76646423339844 43.63777542114258 18.27161407470703 43.57999801635742 18.7913761138916 43.5185432434082 C 19.31160736083984 43.45701599121094 19.84649658203125 43.39186859130859 20.39803886413574 43.32301330566406 C 20.95007705688477 43.25397491455078 21.51879692077637 43.18118667602539 22.10615348815918 43.10408401489258 C 22.69408988952637 43.02711486816406 23.30074882507324 42.94617080688477 23.92807197570801 42.86063385009766 Z M 11.16668319702148 44.2301025390625 L 8.446785926818848 45.95219802856445 C 7.847188949584961 45.98513412475586 7.283330917358398 46.00896072387695 6.753489017486572 46.02372741699219 C 6.224323749542236 46.03857421875 5.729082584381104 46.04400634765625 5.265963554382324 46.04075622558594 C 4.80350399017334 46.03725051879883 4.373109817504883 46.0247802734375 3.973100900650024 46.00336074829102 C 3.573618650436401 45.98200988769531 3.204440116882324 45.95165252685547 2.863859415054321 45.9122314453125 L 6.200795650482178 44.21347808837891 C 6.493807315826416 44.24615478515625 6.817645072937012 44.27098846435547 7.171664237976074 44.28818511962891 C 7.526127815246582 44.30519485473633 7.910824298858643 44.31460571289062 8.325106620788574 44.31610870361328 C 8.739916801452637 44.31771469116211 9.184377670288086 44.3111686706543 9.657869338989258 44.29686737060547 C 10.13193225860596 44.28245162963867 10.63509082794189 44.26034164428711 11.16668319702148 44.2301025390625 Z" stroke="none" fill="#faad5d"/>
    </g>
    <path id="Rechteck_81" data-name="Rechteck 81" d="M21.243,27.017,444.865,1.133a18.212,18.212,0,0,1,7.361,1.073,19.25,19.25,0,0,1,6.251,3.765,20.163,20.163,0,0,1,6.608,13.268L490.5,309.756a20.163,20.163,0,0,1-4.2,14.214,19.252,19.252,0,0,1-5.5,4.794,18.213,18.213,0,0,1-7.063,2.335L52.052,379.169a21.356,21.356,0,0,1-8.357-.684,20.631,20.631,0,0,1-7.11-3.658A19.871,19.871,0,0,1,29.1,360.921L1.807,48.974A19.871,19.871,0,0,1,6.765,33.979a20.63,20.63,0,0,1,6.367-4.838A21.356,21.356,0,0,1,21.243,27.017Z" transform="translate(1.654 148.997)" fill="#ffca8c"/>
    <path id="Rechteck_82" data-name="Rechteck 82" d="M50.677,1.672,431.965,35.224a20.864,20.864,0,0,1,7.9,2.308A20.431,20.431,0,0,1,446,42.474a19.887,19.887,0,0,1,4.575,14.937l-28.89,274.869a19.886,19.886,0,0,1-7.58,13.659,20.429,20.429,0,0,1-7.033,3.558,20.864,20.864,0,0,1-8.206.615L18.937,303.657a18.829,18.829,0,0,1-7.22-2.432,19.528,19.528,0,0,1-5.58-4.9A20.068,20.068,0,0,1,2.043,281.9L29.629,19.441a20.068,20.068,0,0,1,7-13.255A19.528,19.528,0,0,1,43.109,2.55,18.829,18.829,0,0,1,50.677,1.672Z" transform="translate(1466.869 465.752)" fill="#ffca8c"/>
  </g>
</svg>
