<svg xmlns="http://www.w3.org/2000/svg" version="1.1" xmlns:xlink="http://www.w3.org/1999/xlink" xmlns:svgjs="http://svgjs.com/svgjs" width="1920" height="1020" preserveAspectRatio="none" viewBox="0 0 1920 1020"><g mask="url(&quot;#SvgjsMask1020&quot;)" fill="none"><path d="M0 342.7L10 339.28L20 372.56L30 393.54L40 349.27L50 408.36L60 483.85L70 468.21L80 468.85L90 404.01L100 428.79L110 503.52L120 603.75L130 580.64L140 603.58L150 504.39L160 478.21L170 559.75L180 678L190 598.96L200 583.02L210 504.38L220 515.3L230 485.19L240 393.96L250 521.4L260 528.75L270 654.09L280 622.79L290 658.71L300 596.23L310 616.47L320 493.75L330 550.71L340 671.38L350 636.86L360 719.45L370 815.56L380 748.8L390 641.5L400 732.07L410 786.46L420 763.91L430 750.32L440 858.43L450 814.05L460 781.44L470 766.43L480 705.96L490 645.71L500 608.14L510 536.73L520 504.78L530 454.85L540 471.88L550 562.73L560 570.05L570 590.5L580 688.09L590 709.21L600 633.83L610 687.34L620 718.54L630 834.58L640 870.63L650 926.5L660 916.74L670 967.45L680 933.61L690 830.57L700 716.51L710 743.65L720 683.09L730 642.26L740 519.81L750 642.34L760 601.48L770 515.88L780 390.26L790 505.72L800 504.36L810 384.19L820 342.22L830 251.97L840 198.41L850 141.94L860 86.68L870 13.26L880 112.84L890 159.51L900 217.05L910 90.85L920 204.99L930 250.67L940 188.27L950 86.73L960 30.9L970 141.02L980 229.03L990 137.17L1000 131.15L1010 187.69L1020 251.48L1030 190.28L1040 68.39L1050 48.75L1060 111.83L1070 144.83L1080 263.34L1090 354.99L1100 420.98L1110 496.13L1120 611.67L1130 525.53L1140 553.75L1150 642.83L1160 670.28L1170 674.53L1180 717.56L1190 594.58L1200 470.37L1210 427.99L1220 494.17L1230 532.86L1240 614.86L1250 599.49L1260 712.6L1270 835.61L1280 711.55L1290 667.02L1300 596.5L1310 492.89L1320 428.98L1330 553.53L1340 530.12L1350 544.91L1360 466.43L1370 535.88L1380 579.56L1390 521.6L1400 483.4L1410 588.79L1420 692.56L1430 691.63L1440 629.97L1450 720.2L1460 775.83L1470 780.05L1480 731.33L1490 642.54L1500 688.01L1510 778.79L1520 761.22L1530 724.6L1540 787.28L1550 886.32L1560 920.52L1570 842.21L1580 723.18L1590 777.22L1600 887.64L1610 819.56L1620 857.09L1630 983.27L1640 1015.55L1650 1015.37L1660 925.58L1670 906.74L1680 840.87L1690 884.87L1700 996.02L1710 910L1720 982.81L1730 872.18L1740 967.99L1750 868.18L1760 863.03L1770 739.26L1780 859.63L1790 867.71L1800 892.97L1810 918.67L1820 955.98L1830 915.84L1840 904.79L1850 831.16L1860 908.86L1870 920.69L1880 914.41L1890 789.03L1900 677.73L1910 709.2L1920 690.92" stroke="rgba(250, 173, 94, 1)" stroke-width="2"></path><path d="M0 342.7L10 339.28L20 372.56L30 393.54L40 349.27L50 408.36L60 483.85L70 468.21L80 468.85L90 404.01L100 428.79L110 503.52L120 603.75L130 580.64L140 603.58L150 504.39L160 478.21L170 559.75L180 678L190 598.96L200 583.02L210 504.38L220 515.3L230 485.19L240 393.96L250 521.4L260 528.75L270 654.09L280 622.79L290 658.71L300 596.23L310 616.47L320 493.75L330 550.71L340 671.38L350 636.86L360 719.45L370 815.56L380 748.8L390 641.5L400 732.07L410 786.46L420 763.91L430 750.32L440 858.43L450 814.05L460 781.44L470 766.43L480 705.96L490 645.71L500 608.14L510 536.73L520 504.78L530 454.85L540 471.88L550 562.73L560 570.05L570 590.5L580 688.09L590 709.21L600 633.83L610 687.34L620 718.54L630 834.58L640 870.63L650 926.5L660 916.74L670 967.45L680 933.61L690 830.57L700 716.51L710 743.65L720 683.09L730 642.26L740 519.81L750 642.34L760 601.48L770 515.88L780 390.26L790 505.72L800 504.36L810 384.19L820 342.22L830 251.97L840 198.41L850 141.94L860 86.68L870 13.26L880 112.84L890 159.51L900 217.05L910 90.85L920 204.99L930 250.67L940 188.27L950 86.73L960 30.9L970 141.02L980 229.03L990 137.17L1000 131.15L1010 187.69L1020 251.48L1030 190.28L1040 68.39L1050 48.75L1060 111.83L1070 144.83L1080 263.34L1090 354.99L1100 420.98L1110 496.13L1120 611.67L1130 525.53L1140 553.75L1150 642.83L1160 670.28L1170 674.53L1180 717.56L1190 594.58L1200 470.37L1210 427.99L1220 494.17L1230 532.86L1240 614.86L1250 599.49L1260 712.6L1270 835.61L1280 711.55L1290 667.02L1300 596.5L1310 492.89L1320 428.98L1330 553.53L1340 530.12L1350 544.91L1360 466.43L1370 535.88L1380 579.56L1390 521.6L1400 483.4L1410 588.79L1420 692.56L1430 691.63L1440 629.97L1450 720.2L1460 775.83L1470 780.05L1480 731.33L1490 642.54L1500 688.01L1510 778.79L1520 761.22L1530 724.6L1540 787.28L1550 886.32L1560 920.52L1570 842.21L1580 723.18L1590 777.22L1600 887.64L1610 819.56L1620 857.09L1630 983.27L1640 1015.55L1650 1015.37L1660 925.58L1670 906.74L1680 840.87L1690 884.87L1700 996.02L1710 910L1720 982.81L1730 872.18L1740 967.99L1750 868.18L1760 863.03L1770 739.26L1780 859.63L1790 867.71L1800 892.97L1810 918.67L1820 955.98L1830 915.84L1840 904.79L1850 831.16L1860 908.86L1870 920.69L1880 914.41L1890 789.03L1900 677.73L1910 709.2L1920 690.92L1920 1020L0 1020z" fill="url(#SvgjsLinearGradient1021)"></path></g><defs><mask id="SvgjsMask1020"><rect width="1920" height="1020" fill="#ffffff"></rect></mask><linearGradient x1="50%" y1="0%" x2="50%" y2="100%" id="SvgjsLinearGradient1021"><stop stop-opacity="0.65" stop-color="rgba(250, 173, 94, 1)" offset="0"></stop><stop stop-opacity="0" stop-color="#ffffff" offset="0.8"></stop></linearGradient></defs></svg>